<svg aria-hidden="true" style="position: absolute; width: 0; height: 0; overflow: hidden;" version="1.1" xmlns="http://www.w3.org/2000/svg" xmlns:xlink="http://www.w3.org/1999/xlink">
<defs>
<symbol id="Twitter" viewBox="0 0 37 32">
<path d="M36.845 4.424c-1.082 0.48-2.341 0.852-3.655 1.055l-0.085 0.011c0.601-0.104 1.487-1.187 1.84-1.625 0.515-0.631 0.925-1.372 1.19-2.178l0.014-0.049c0-0.061 0.059-0.147 0-0.189-0.029-0.016-0.063-0.026-0.099-0.026s-0.071 0.009-0.1 0.026l0.001-0.001c-1.272 0.705-2.746 1.294-4.297 1.691l-0.131 0.029c-0.027 0.009-0.058 0.014-0.091 0.014-0.086 0-0.163-0.035-0.219-0.091v0c-0.123-0.146-0.25-0.278-0.384-0.401l-0.003-0.003c-0.605-0.544-1.303-1.002-2.063-1.346l-0.051-0.021c-0.835-0.352-1.806-0.557-2.824-0.557-0.165 0-0.329 0.005-0.492 0.016l0.022-0.001c-1.154 0.075-2.22 0.385-3.173 0.882l0.044-0.021c-0.978 0.543-1.801 1.245-2.463 2.080l-0.013 0.017c-0.684 0.845-1.204 1.853-1.493 2.955l-0.012 0.055c-0.124 0.537-0.196 1.154-0.196 1.788 0 0.492 0.043 0.974 0.126 1.443l-0.007-0.050c0 0.18 0 0.206-0.154 0.18-6.131-0.903-11.161-3.078-15.271-7.747-0.181-0.206-0.275-0.206-0.421 0-1.79 2.717-0.921 7.016 1.314 9.14 0.301 0.284 0.611 0.559 0.937 0.817-1.086-0.079-2.086-0.372-2.983-0.837l0.043 0.020c-0.172-0.112-0.266-0.051-0.275 0.155-0.025 0.286-0.025 0.573 0 0.859 0.382 2.837 2.24 5.164 4.763 6.207l0.052 0.019c0.312 0.135 0.637 0.236 0.971 0.301-0.511 0.105-1.098 0.166-1.699 0.166-0.417 0-0.826-0.029-1.228-0.085l0.046 0.005c-0.206-0.043-0.284 0.069-0.206 0.266 1.263 3.44 4.007 4.488 6.019 5.074 0.275 0.042 0.551 0.042 0.86 0.111l-0.050 0.053c-0.594 1.083-2.992 1.814-4.093 2.192-1.48 0.549-3.19 0.866-4.974 0.866-0.459 0-0.913-0.021-1.361-0.062l0.058 0.004c-0.335-0.051-0.413-0.042-0.499 0s0 0.138 0.094 0.224c0.429 0.284 0.86 0.533 1.307 0.774 1.2 0.669 2.591 1.255 4.051 1.683l0.146 0.037c7.549 2.080 16.045 0.55 21.711-5.082 4.454-4.419 6.019-10.515 6.019-16.621 0-0.232 0.284-0.37 0.447-0.49 1.13-0.886 2.103-1.9 2.919-3.034l0.030-0.044c0.143-0.173 0.217-0.394 0.206-0.619 0-0.13 0-0.104-0.163-0.035z"></path>
</symbol>
<symbol id="Discord" viewBox="0 0 41 32">
<path d="M34.382 3.294c4.504 6.663 6.729 14.18 5.897 22.833-0.004 0.038-0.023 0.071-0.052 0.092l-0 0c-3.411 2.52-6.716 4.050-9.973 5.064-0.011 0.003-0.024 0.005-0.037 0.005-0.043 0-0.080-0.021-0.103-0.053l-0-0c-0.694-0.956-1.37-2.046-1.966-3.184l-0.070-0.147c-0.009-0.017-0.014-0.037-0.014-0.059 0-0.054 0.033-0.101 0.081-0.12l0.001-0c1.208-0.46 2.233-0.961 3.206-1.541l-0.093 0.051c0.038-0.023 0.063-0.064 0.063-0.111 0-0.042-0.020-0.079-0.051-0.103l-0-0c-0.245-0.184-0.447-0.344-0.645-0.509l0.025 0.020c-0.021-0.018-0.048-0.028-0.078-0.028-0.019 0-0.038 0.005-0.054 0.013l0.001-0c-6.451 2.997-13.517 2.997-20.044 0-0.015-0.007-0.032-0.010-0.050-0.010-0.030 0-0.058 0.011-0.079 0.028l0-0c-0.199 0.165-0.409 0.329-0.618 0.487-0.031 0.024-0.051 0.061-0.051 0.102 0 0.047 0.025 0.088 0.063 0.111l0.001 0c0.874 0.52 1.898 1.021 2.964 1.441l0.147 0.051c0.071 0.027 0.104 0.108 0.069 0.177-0.649 1.279-1.326 2.371-2.084 3.399l0.046-0.066c-0.024 0.031-0.061 0.051-0.103 0.051-0.013 0-0.025-0.002-0.037-0.005l0.001 0c-3.244-1.014-6.548-2.544-9.959-5.064-0.029-0.022-0.048-0.056-0.052-0.094l-0-0.001c-0.694-7.484 0.722-15.063 5.892-22.833 0.013-0.020 0.031-0.036 0.053-0.046l0.001-0c2.345-1.114 5.068-1.994 7.92-2.504l0.198-0.029c0.006-0.001 0.013-0.002 0.020-0.002 0.047 0 0.088 0.025 0.11 0.063l0 0.001c0.352 0.628 0.754 1.431 1.027 2.089 1.37-0.22 2.95-0.346 4.559-0.346s3.189 0.126 4.73 0.368l-0.171-0.022c0.362-0.855 0.701-1.541 1.071-2.207l-0.060 0.118c0.022-0.039 0.062-0.064 0.109-0.064 0.008 0 0.015 0.001 0.023 0.002l-0.001-0c3.050 0.54 5.773 1.42 8.317 2.618l-0.2-0.085c0.023 0.009 0.041 0.026 0.052 0.048zM17.479 17.525c0.031-2.213-1.572-4.044-3.585-4.044-1.996 0-3.584 1.815-3.584 4.044s1.62 4.043 3.585 4.043c1.996 0 3.584-1.814 3.584-4.043zM30.732 17.525c0.031-2.213-1.573-4.044-3.585-4.044-1.996 0-3.585 1.815-3.585 4.044s1.62 4.043 3.585 4.043c2.012 0 3.584-1.814 3.584-4.043z"></path>
</symbol>
<symbol id="Drained-Planet" viewBox="0 0 275 32">
<path d="M19.943 14.85c0.134-2.987-0.847-5.974-2.452-8.783-2.319-4.013-5.885-6.019-10.521-6.063-1.382-0.045-2.675 0.268-4.013 0.49-1.872 0.312-2.496 0.803-2.63 2.63-0.178 3.345-0.49 6.687-0.223 10.031 0.134 1.917 0.089 3.789 0.178 5.706 0.089 1.828 0.134 3.701 0.267 5.573 0.134 1.248 0.312 2.497 0.49 3.745 0.134 0.892 0.579 1.605 1.382 2.006s1.649 0.802 2.541 0.892c3.7 0.223 7.178-0.49 9.853-3.344 3.299-3.567 5.127-7.712 5.127-12.883zM6.969 9.812c0-1.649-0.044-3.299 0-4.949 0-0.579 0.134-0.847 0.491-0.847 1.025 0 2.184 1.471 2.719 2.184 3.567 5.216 3.656 11.145 0.535 16.495-0.624 1.114-1.338 2.14-2.273 3.032-0.446 0.401-0.625 0.356-0.803-0.223-0.051-0.226-0.084-0.487-0.089-0.754l-0-0.004c-0.045-1.827-0.357-3.7-0.357-5.528 0.045-3.165-0.312-6.241-0.223-9.407zM29.939 25.103c-0.045-1.56-0.134-3.121-0.223-4.726 0-0.356 0-0.758 0.088-1.114 0.045-0.267 0.179-0.445 0.49-0.445 0.268 0 0.401 0.178 0.446 0.401 0.134 0.357 0.223 0.713 0.357 1.114 0.936 3.254 1.962 6.465 3.432 9.54 0.223 0.58 0.536 1.114 1.071 1.427 0.668 0.446 1.649 0.669 2.586 0.669 1.114 0 2.229-0.312 2.897-0.891 0.624-0.536 0.892-1.159 0.579-2.006-0.312-0.758-0.535-1.56-0.802-2.319l-3.21-8.292c-0.536-1.337-0.49-1.337 0.535-2.184 1.198-0.944 2.206-2.065 2.999-3.334l0.032-0.054c0.714-1.114 1.203-2.319 1.070-3.656-0.356-3.299-1.917-5.885-5.037-7.311-2.006-0.936-4.146-1.203-6.33-0.936-2.184 0.223-4.369 0.445-6.509 0.624-1.114 0.089-1.516 0.446-1.605 1.517-0.045 0.98-0.089 2.006-0.089 3.031-0.045 2.808-0.045 5.617-0.134 8.47-0.089 4.235 0 8.515 0.223 12.795 0.134 2.541 2.273 4.413 4.681 4.413 0.445 0 0.936-0.089 1.382-0.223 0.981-0.268 1.337-0.758 1.293-1.828-0.089-1.56-0.178-3.121-0.223-4.681zM29.404 9.901c-0.088-0.579-0.178-0.981-0.223-1.337-0.134-1.025-0.045-1.16 0.892-1.203h4.949c0.267 0 0.534 0 0.758 0.088 0.624 0.134 0.713 0.401 0.357 0.892-1.471 1.962-3.433 3.121-5.885 3.567-0.49 0.089-0.758-0.089-0.802-0.579-0.045-0.536-0.045-1.070-0.045-1.426zM55.667 0.584h-0.892c-3.388-0.045-4.547 2.318-5.394 5.082-2.229 7.445-4.191 14.89-5.439 22.558-0.134 1.025 0.134 1.56 1.070 2.051 0.936 0.536 1.962 0.446 2.986 0.401 1.382-0.089 2.23-0.803 2.541-2.184 0.223-0.981 0.401-1.917 0.579-2.854 0.223-0.981 0.357-1.070 1.293-1.114 1.516-0.089 3.032-0.178 4.547-0.223 0.625-0.045 1.338-0.312 1.828 0.089 0.49 0.357 0.267 1.114 0.357 1.694 0.401 2.675 0.356 3.789 4.235 3.923 0.178 0 0.357 0.045 0.535 0 1.783-0.134 2.63-1.070 2.586-2.898 0-0.49-0.045-0.981-0.089-1.516-0.49-3.923-1.114-7.846-1.917-11.725-0.536-2.898-1.203-5.706-2.229-8.47-1.115-2.943-3.299-4.949-6.599-4.815zM55.889 7.405c0.892 2.943 1.517 5.974 1.917 9.050 0.089 0.535-0.134 0.802-0.669 0.847-1.070 0.045-2.184 0.045-3.254 0.223-0.625 0.090-0.758-0.088-0.58-0.891 0.58-2.497 1.16-4.993 1.917-7.489 0.179-0.49 0.268-1.025 0.669-1.739zM68.189 12.264c-0.045 2.897-0.267 7.445-0.134 11.368 0.089 1.606 0.223 3.21 0.312 4.815 0.089 1.872 1.783 2.362 3.388 2.362 3.299 0 3.478-1.248 3.478-3.878-0.134-4.28 0.089-9.184-0.045-13.419-0.089-2.943-0.223-5.84-0.312-8.783-0.045-0.535-0.134-1.070-0.178-1.605-0.268-1.962-1.917-2.184-3.522-2.407-2.006-0.179-2.987 0.668-2.987 2.63v8.917zM84.779 12.309c0.401 0.178 0.446 0.49 0.625 0.713l2.808 4.949c0.446 0.802 0.847 1.605 1.605 2.184 0.535 0.401 0.669 0.847 0.624 1.516 0 2.586 0 5.082 0.357 7.667 0.267 1.828 2.318 2.497 3.967 2.497 0.49 0 0.981-0.045 1.516-0.223 1.338-0.446 1.784-1.114 1.65-2.497-0.179-1.516-0.357-2.987-0.357-4.503-0.045-4.637-0.089-9.228 0.134-13.82 0.089-2.006 0.178-4.057 0.268-6.063 0-0.713-0.045-1.471-0.045-2.184-0.090-1.516-2.051-2.095-3.299-2.095-1.382 0-3.032 0.357-3.165 2.006-0.178 1.56-0.49 3.121-0.535 4.681 0 0.357 0.045 0.758-0.267 1.248-0.268-0.445-0.49-0.802-0.758-1.159-1.203-1.917-2.452-3.789-4.013-5.439-0.891-0.981-1.961-1.517-3.388-1.249-2.095 0.357-4.904 1.338-4.904 3.879 0.045 2.051 0.045 4.146 0.045 6.196 0 4.057 0.045 8.070 0.045 12.127 0 2.051 0 4.057-0.045 6.063 0 1.203 0.356 2.051 1.649 2.274 0.936 0.178 1.827-0.045 2.719-0.401 1.738-0.579 2.184-1.203 2.318-2.987 0.312-3.878 0.312-7.757 0.268-11.635-0.045-1.203 0.089-2.452 0.178-3.745zM109.565 0.406c-5.305 0.178-8.292 3.343-8.872 8.070-0.223 2.006 0.49 3.745 1.872 5.215 0.312 0.312 0.714 0.625 0.179 1.114-1.962 2.006-2.586 4.503-2.719 7.178-0.134 2.63 0.624 4.993 2.675 6.821 1.426 1.293 3.923 2.051 6.33 2.051 1.56 0 3.076-0.312 4.28-1.025 2.943-1.783 4.458-5.439 3.478-8.381-0.625-1.872-2.274-2.318-4.057-2.407-1.962-0.045-2.809 0.936-2.319 2.853 0.401 1.694-0.356 2.943-1.471 4.102-0.268 0.267-0.49 0.401-0.714 0.401-0.535 0-0.936-1.070-1.025-1.517-0.535-1.871-0.356-3.699 0.401-5.439 0.713-1.56 1.873-2.585 3.789-2.407 0.892 0.089 1.784-0.089 2.586-0.446 1.070-0.49 1.293-1.293 0.714-2.273-0.307-0.52-0.748-0.932-1.276-1.195l-0.018-0.008c-1.427-0.714-2.897-1.16-4.547-0.981-1.025 0.134-1.203 0-1.337-1.071-0.178-1.293 0.267-2.451 0.802-3.521 0.892-1.828 2.274-2.898 4.414-2.898 0.669 0.045 1.337-0.089 1.694-0.802 0.268-0.58 0-1.293-0.669-1.917-0.981-0.758-2.987-1.517-4.191-1.517zM138.314 17.569c0.178-4.191-0.223-7.222-1.427-10.075-1.337-3.121-3.522-5.306-6.91-6.197-1.471-0.446-2.987-0.847-4.592-0.758-0.357 0.045-0.758-0.089-1.114-0.134-1.694-0.268-3.299 0.134-4.815 0.847-0.803 0.356-1.070 0.981-0.758 1.738 0.268 0.713 0.223 1.426 0.179 2.14-0.090 1.694-0.223 3.433-0.223 5.171-0.089 3.834-0.178 7.713 0.223 11.546 0.178 2.095 0.312 4.191 0.713 6.286s2.363 2.72 4.28 2.72c1.114 0.088 2.274 0.223 3.389-0.179 3.923-1.426 7.267-2.898 9.272-6.776 1.204-2.363 1.739-4.859 1.784-6.33zM131.047 14.003c-0.089 3.433-0.803 8.649-3.878 10.833-0.535 0.356-0.758 0.267-0.803-0.357-0.178-2.452-0.49-4.904-0.535-7.356-0.045-3.433-0.045-6.91-0.089-10.387 0-1.382 0.134-1.56 1.070-1.873 0.936-0.267 1.56-0.045 2.184 0.981 1.025 1.517 1.471 3.255 1.738 4.993 0.179 1.203 0.401 2.407 0.312 3.165zM154.084 0.495c-0.357 0-0.669 0.045-1.025 0.045-2.541 0.223-2.541 1.382-2.541 3.611-0.089 5.84 0.045 11.68 0.268 17.521 0.089 1.872 0.178 3.7 0.223 5.572 0.045 0.758 0.223 1.427 0.803 1.962 1.337 1.203 2.897 1.649 4.681 1.293 1.159-0.268 1.649-0.892 1.694-2.051 0.089-0.892 0.045-1.784-0.089-2.675-0.134-1.249-0.089-2.541-0.134-3.79 0-0.624 0.178-0.981 0.847-0.981 0.714-0.045 1.427-0.178 2.14-0.267 4.013-0.446 7.624-4.369 7.713-8.381 0.045-2.898-1.070-5.35-2.943-7.49-2.14-2.451-5.037-3.432-8.113-4.056-1.159-0.223-2.319-0.401-3.522-0.312zM157.829 15.653c-0.045-0.313-0.089-0.447-0.089-0.625l-0.267-8.605c0-0.267-0.045-0.49 0-0.758 0.089-0.579 0.312-0.713 0.891-0.445 0.089 0.044 0.223 0.133 0.312 0.178 1.738 1.382 2.408 3.254 2.408 5.35s-1.293 3.967-3.255 4.904zM177.992 15.117c0.134-3.165-0.134-6.821-0.223-10.477-0.045-0.981-0.223-1.917-0.981-2.541-1.114-0.892-2.407-1.293-3.745-1.293-1.427 0-1.962 0.624-1.962 2.051-0.045 1.738 0 3.477-0.089 5.216-0.223 4.681-0.401 9.362-0.446 14.043 0 1.337 0.045 2.675-0.089 4.056-0.089 0.803-0.089 1.56 0.045 2.363 0.357 1.783 1.248 2.586 3.032 2.586 1.649 0 3.299 0 4.948 0.089 1.917 0.134 3.879 0.134 5.841 0.134 1.738 0 2.764-0.847 3.031-2.586 0.179-1.114 0.090-2.273-0.356-3.343-0.49-1.203-1.293-1.828-2.63-1.828-1.784 0.045-3.522 0.045-5.306 0.045-1.025 0.044-1.070 0.044-1.070-1.025v-7.491zM200.904 0.584h-0.891c-3.389-0.045-4.547 2.318-5.395 5.082-2.229 7.445-4.191 14.89-5.439 22.558-0.134 1.025 0.134 1.56 1.070 2.051 0.936 0.536 1.962 0.446 2.987 0.401 1.382-0.089 2.229-0.803 2.541-2.184 0.223-0.981 0.401-1.917 0.58-2.854 0.223-0.981 0.356-1.070 1.293-1.114 1.516-0.089 3.032-0.178 4.547-0.223 0.624-0.045 1.337-0.312 1.827 0.089 0.49 0.357 0.268 1.114 0.357 1.694 0.401 2.675 0.357 3.789 4.235 3.923 0.178 0 0.357 0.045 0.535 0 1.784-0.134 2.63-1.070 2.586-2.898 0-0.49-0.045-0.981-0.089-1.516-0.49-3.923-1.114-7.846-1.917-11.725-0.535-2.898-1.203-5.706-2.229-8.47-1.114-2.943-3.299-4.949-6.598-4.815zM201.127 7.405c0.891 2.943 1.516 5.974 1.917 9.050 0.090 0.535-0.134 0.802-0.669 0.847-1.070 0.045-2.184 0.045-3.254 0.223-0.624 0.090-0.758-0.088-0.579-0.891 0.579-2.497 1.159-4.993 1.917-7.489 0.179-0.49 0.268-1.025 0.669-1.739zM220.961 12.309c0.401 0.178 0.446 0.49 0.624 0.713l2.809 4.949c0.446 0.802 0.847 1.605 1.605 2.184 0.535 0.401 0.669 0.847 0.624 1.516 0 2.586 0 5.082 0.357 7.667 0.267 1.828 2.318 2.497 3.967 2.497 0.49 0 0.981-0.045 1.516-0.223 1.338-0.446 1.784-1.114 1.649-2.497-0.178-1.516-0.356-2.987-0.356-4.503-0.045-4.637-0.089-9.228 0.134-13.82 0.089-2.006 0.178-4.057 0.268-6.063 0-0.713-0.045-1.471-0.045-2.184-0.089-1.516-2.050-2.095-3.299-2.095-1.382 0-3.032 0.357-3.165 2.006-0.178 1.56-0.49 3.121-0.535 4.681 0 0.357 0.045 0.758-0.267 1.248-0.268-0.445-0.49-0.802-0.758-1.159-1.203-1.917-2.452-3.789-4.013-5.439-0.891-0.981-1.961-1.517-3.388-1.249-2.095 0.357-4.904 1.338-4.904 3.879 0.045 2.051 0.045 4.146 0.045 6.196 0 4.057 0.045 8.070 0.045 12.127 0 2.051 0 4.057-0.045 6.063 0 1.203 0.356 2.051 1.649 2.274 0.936 0.178 1.827-0.045 2.719-0.401 1.738-0.579 2.184-1.203 2.318-2.987 0.312-3.878 0.312-7.757 0.268-11.635-0.045-1.203 0.089-2.452 0.178-3.745zM245.746 0.406c-5.305 0.178-8.292 3.343-8.872 8.070-0.223 2.006 0.49 3.745 1.872 5.215 0.312 0.312 0.714 0.625 0.179 1.114-1.962 2.006-2.586 4.503-2.72 7.178-0.134 2.63 0.625 4.993 2.675 6.821 1.426 1.293 3.923 2.051 6.33 2.051 1.56 0 3.076-0.312 4.28-1.025 2.943-1.783 4.458-5.439 3.478-8.381-0.625-1.872-2.274-2.318-4.057-2.407-1.962-0.045-2.809 0.936-2.319 2.853 0.401 1.694-0.356 2.943-1.471 4.102-0.268 0.267-0.49 0.401-0.714 0.401-0.535 0-0.936-1.070-1.025-1.517-0.535-1.871-0.356-3.699 0.401-5.439 0.713-1.56 1.873-2.585 3.789-2.407 0.892 0.089 1.784-0.089 2.586-0.446 1.070-0.49 1.293-1.293 0.714-2.273-0.307-0.52-0.748-0.932-1.276-1.195l-0.018-0.008c-1.427-0.714-2.897-1.16-4.547-0.981-1.025 0.134-1.203 0-1.337-1.071-0.179-1.293 0.267-2.451 0.802-3.521 0.892-1.828 2.274-2.898 4.414-2.898 0.669 0.045 1.337-0.089 1.694-0.802 0.268-0.58 0-1.293-0.669-1.917-0.981-0.758-2.987-1.517-4.191-1.517zM266.521 16.41c0.089-2.943 0.178-5.484 0.223-7.981 0.045-1.203 0.178-1.337 1.382-1.203 1.426 0.134 2.853 0.312 4.28 0.401 1.694 0.089 2.497-0.803 2.362-2.452-0.223-2.943-1.961-4.591-4.904-4.77h-0.624c-1.204-0.134-2.452-0.178-3.7-0.178-3.478 0-8.114 0.178-11.368 1.382-1.338 0.536-1.784 1.427-1.203 2.72 0.758 1.605 1.917 2.764 3.789 2.986 0.758 0.045 1.516 0.045 2.273 0.089 0.892 0.045 1.025 0.134 0.981 1.070-0.045 0.536-0.134 1.070-0.178 1.605-0.357 5.306-0.134 12.127 0.045 17.387 0 2.229 0.579 3.656 2.987 3.656 1.382 0 2.986-0.536 3.789-1.382 0.446-0.49 0.713-1.025 0.579-1.694-0.535-3.478-0.535-8.515-0.713-11.635z"></path>
</symbol>
<symbol id="Mint" viewBox="0 0 83 32">
<path fill="#fff" style="fill: var(--color1, #fff)" d="M13.98 10.707c-0.045 0-0.134 0.045-0.223 0.045-1.525-4.022-2.41-6.153-3.321-8.269l0.694 1.814c-0.846-2.315-2.983-4.141-5.521-4.141-1.336 0-3.784 0.712-4.051 2.271l-0.134 1.425c-0.134 3.562-0.356 7.168-0.267 10.73 0 2.093-0.089 4.23 0 6.322 0.089 2.182 0.178 4.363 0.49 6.545 0.223 1.558 1.113 2.315 2.538 2.627 0.89 0.178 1.825 0.178 2.76-0.089 1.291-0.445 1.692-0.935 1.736-2.315 0.089-2.093-0.223-4.141-0.312-6.189-0.045-2.182-0.134-4.363-0.178-6.545 0.534 1.514 0.979 3.027 1.514 4.497 0.801 2.137 2.493 2.983 4.63 3.161 1.781 0.134 2.805-0.623 3.384-2.315 0.801-2.404 1.647-4.764 2.226-7.257 0.045-0.178 0.045-0.445 0.356-0.623-0.178 1.959 0 3.784-0.045 5.654-0.134 3.473-0.178 6.901-0.312 10.374-0.045 1.469 0.623 2.36 1.914 2.849 0.661 0.294 1.433 0.465 2.244 0.465 0.166 0 0.33-0.007 0.493-0.021l-0.021 0.001c1.558-0.089 2.36-0.801 2.493-2.36 0.134-1.514 0.223-3.072 0.312-4.586 0.223-3.918 0.089-7.836 0.089-11.754 0-2.226-0.223-4.452-0.668-6.634-0.623-3.206-2.582-4.942-5.743-5.432-1.603-0.223-3.873 0.312-4.675 2.582-0.356 1.069-0.801 2.093-1.158 3.161-0.445 1.336-0.801 2.671-1.247 4.007zM29.498 12.043c-0.045 2.894-0.267 7.435-0.134 11.353 0.089 1.603 0.223 3.206 0.312 4.808 0.089 1.87 1.781 2.36 3.384 2.36 3.295 0 3.473-1.247 3.473-3.873-0.134-4.274 0.089-9.171-0.045-13.401-0.089-2.938-0.223-5.832-0.312-8.771-0.045-0.534-0.134-1.069-0.178-1.603-0.267-1.959-1.914-2.182-3.517-2.404-2.003-0.178-2.983 0.668-2.983 2.627v8.904zM46.066 12.088c0.401 0.178 0.445 0.49 0.623 0.712l2.805 4.942c0.445 0.801 0.846 1.603 1.603 2.182 0.534 0.401 0.668 0.846 0.623 1.514 0 2.582 0 5.075 0.356 7.658 0.267 1.825 2.315 2.493 3.962 2.493 0.49 0 0.979-0.045 1.514-0.223 1.336-0.445 1.781-1.113 1.647-2.493-0.178-1.514-0.356-2.983-0.356-4.497-0.045-4.63-0.089-9.216 0.134-13.802l0.267-6.055c0-0.712-0.045-1.469-0.045-2.182-0.089-1.514-2.048-2.093-3.295-2.093-1.38 0-3.027 0.356-3.161 2.003-0.178 1.558-0.49 3.117-0.534 4.675 0 0.356 0.045 0.757-0.267 1.247-0.264-0.452-0.514-0.83-0.782-1.193l0.025 0.036c-1.202-1.914-2.449-3.784-4.007-5.432-0.89-0.979-1.959-1.514-3.384-1.247-2.093 0.356-4.897 1.336-4.897 3.873 0.045 2.048 0.045 4.141 0.045 6.189 0 4.051 0.045 8.058 0.045 12.11 0 2.048 0 4.051-0.045 6.055 0 1.202 0.356 2.048 1.647 2.271 0.935 0.178 1.825-0.045 2.716-0.401 1.736-0.579 2.182-1.202 2.315-2.983 0.312-3.873 0.312-7.747 0.267-11.62-0.045-1.202 0.089-2.449 0.178-3.74zM74.695 16.184c0.089-2.938 0.178-5.476 0.223-7.969 0.045-1.202 0.178-1.336 1.38-1.202 1.425 0.134 2.849 0.312 4.274 0.401 1.692 0.089 2.493-0.801 2.36-2.449-0.223-2.938-1.959-4.586-4.897-4.764h-0.623c-1.040-0.114-2.246-0.179-3.466-0.179-0.080 0-0.161 0-0.241 0.001l0.012-0c-3.473 0-8.103 0.178-11.353 1.38-1.336 0.534-1.781 1.425-1.202 2.716 0.757 1.603 1.914 2.76 3.784 2.983 0.757 0.045 1.514 0.045 2.271 0.089 0.89 0.045 1.024 0.134 0.979 1.069-0.045 0.534-0.134 1.069-0.178 1.603-0.356 5.298-0.134 12.11 0.045 17.363 0 2.226 0.579 3.651 2.983 3.651 1.38 0 2.983-0.534 3.784-1.38 0.445-0.49 0.712-1.024 0.579-1.692-0.534-3.473-0.534-8.504-0.712-11.62z"></path>
</symbol>
</defs>
</svg>
