<svg aria-hidden="true" style="position: absolute; width: 0; height: 0; overflow: hidden;" version="1.1" xmlns="http://www.w3.org/2000/svg" xmlns:xlink="http://www.w3.org/1999/xlink">
<defs>
<symbol id="Twitter" viewBox="0 0 37 32">
<path d="M36.845 4.424c-1.082 0.48-2.341 0.852-3.655 1.055l-0.085 0.011c0.601-0.104 1.487-1.187 1.84-1.625 0.515-0.631 0.925-1.372 1.19-2.178l0.014-0.049c0-0.061 0.059-0.147 0-0.189-0.029-0.016-0.063-0.026-0.099-0.026s-0.071 0.009-0.1 0.026l0.001-0.001c-1.272 0.705-2.746 1.294-4.297 1.691l-0.131 0.029c-0.027 0.009-0.058 0.014-0.091 0.014-0.086 0-0.163-0.035-0.219-0.091v0c-0.123-0.146-0.25-0.278-0.384-0.401l-0.003-0.003c-0.605-0.544-1.303-1.002-2.063-1.346l-0.051-0.021c-0.835-0.352-1.806-0.557-2.824-0.557-0.165 0-0.329 0.005-0.492 0.016l0.022-0.001c-1.154 0.075-2.22 0.385-3.173 0.882l0.044-0.021c-0.978 0.543-1.801 1.245-2.463 2.080l-0.013 0.017c-0.684 0.845-1.204 1.853-1.493 2.955l-0.012 0.055c-0.124 0.537-0.196 1.154-0.196 1.788 0 0.492 0.043 0.974 0.126 1.443l-0.007-0.050c0 0.18 0 0.206-0.154 0.18-6.131-0.903-11.161-3.078-15.271-7.747-0.181-0.206-0.275-0.206-0.421 0-1.79 2.717-0.921 7.016 1.314 9.14 0.301 0.284 0.611 0.559 0.937 0.817-1.086-0.079-2.086-0.372-2.983-0.837l0.043 0.020c-0.172-0.112-0.266-0.051-0.275 0.155-0.025 0.286-0.025 0.573 0 0.859 0.382 2.837 2.24 5.164 4.763 6.207l0.052 0.019c0.312 0.135 0.637 0.236 0.971 0.301-0.511 0.105-1.098 0.166-1.699 0.166-0.417 0-0.826-0.029-1.228-0.085l0.046 0.005c-0.206-0.043-0.284 0.069-0.206 0.266 1.263 3.44 4.007 4.488 6.019 5.074 0.275 0.042 0.551 0.042 0.86 0.111l-0.050 0.053c-0.594 1.083-2.992 1.814-4.093 2.192-1.48 0.549-3.19 0.866-4.974 0.866-0.459 0-0.913-0.021-1.361-0.062l0.058 0.004c-0.335-0.051-0.413-0.042-0.499 0s0 0.138 0.094 0.224c0.429 0.284 0.86 0.533 1.307 0.774 1.2 0.669 2.591 1.255 4.051 1.683l0.146 0.037c7.549 2.080 16.045 0.55 21.711-5.082 4.454-4.419 6.019-10.515 6.019-16.621 0-0.232 0.284-0.37 0.447-0.49 1.13-0.886 2.103-1.9 2.919-3.034l0.030-0.044c0.143-0.173 0.217-0.394 0.206-0.619 0-0.13 0-0.104-0.163-0.035z"></path>
</symbol>
<symbol id="Discord" viewBox="0 0 41 32">
<path d="M34.382 3.294c4.504 6.663 6.729 14.18 5.897 22.833-0.004 0.038-0.023 0.071-0.052 0.092l-0 0c-3.411 2.52-6.716 4.050-9.973 5.064-0.011 0.003-0.024 0.005-0.037 0.005-0.043 0-0.080-0.021-0.103-0.053l-0-0c-0.694-0.956-1.37-2.046-1.966-3.184l-0.070-0.147c-0.009-0.017-0.014-0.037-0.014-0.059 0-0.054 0.033-0.101 0.081-0.12l0.001-0c1.208-0.46 2.233-0.961 3.206-1.541l-0.093 0.051c0.038-0.023 0.063-0.064 0.063-0.111 0-0.042-0.020-0.079-0.051-0.103l-0-0c-0.245-0.184-0.447-0.344-0.645-0.509l0.025 0.020c-0.021-0.018-0.048-0.028-0.078-0.028-0.019 0-0.038 0.005-0.054 0.013l0.001-0c-6.451 2.997-13.517 2.997-20.044 0-0.015-0.007-0.032-0.010-0.050-0.010-0.030 0-0.058 0.011-0.079 0.028l0-0c-0.199 0.165-0.409 0.329-0.618 0.487-0.031 0.024-0.051 0.061-0.051 0.102 0 0.047 0.025 0.088 0.063 0.111l0.001 0c0.874 0.52 1.898 1.021 2.964 1.441l0.147 0.051c0.071 0.027 0.104 0.108 0.069 0.177-0.649 1.279-1.326 2.371-2.084 3.399l0.046-0.066c-0.024 0.031-0.061 0.051-0.103 0.051-0.013 0-0.025-0.002-0.037-0.005l0.001 0c-3.244-1.014-6.548-2.544-9.959-5.064-0.029-0.022-0.048-0.056-0.052-0.094l-0-0.001c-0.694-7.484 0.722-15.063 5.892-22.833 0.013-0.020 0.031-0.036 0.053-0.046l0.001-0c2.345-1.114 5.068-1.994 7.92-2.504l0.198-0.029c0.006-0.001 0.013-0.002 0.020-0.002 0.047 0 0.088 0.025 0.11 0.063l0 0.001c0.352 0.628 0.754 1.431 1.027 2.089 1.37-0.22 2.95-0.346 4.559-0.346s3.189 0.126 4.73 0.368l-0.171-0.022c0.362-0.855 0.701-1.541 1.071-2.207l-0.060 0.118c0.022-0.039 0.062-0.064 0.109-0.064 0.008 0 0.015 0.001 0.023 0.002l-0.001-0c3.050 0.54 5.773 1.42 8.317 2.618l-0.2-0.085c0.023 0.009 0.041 0.026 0.052 0.048zM17.479 17.525c0.031-2.213-1.572-4.044-3.585-4.044-1.996 0-3.584 1.815-3.584 4.044s1.62 4.043 3.585 4.043c1.996 0 3.584-1.814 3.584-4.043zM30.732 17.525c0.031-2.213-1.573-4.044-3.585-4.044-1.996 0-3.585 1.815-3.585 4.044s1.62 4.043 3.585 4.043c2.012 0 3.584-1.814 3.584-4.043z"></path>
</symbol>
</defs>
</svg>
