<svg aria-hidden="true" style="position: absolute; width: 0; height: 0; overflow: hidden;" version="1.1" xmlns="http://www.w3.org/2000/svg" xmlns:xlink="http://www.w3.org/1999/xlink">
<defs>
<symbol id="Twitter" viewBox="0 0 37 32">
<path d="M36.845 4.424c-1.082 0.48-2.341 0.852-3.655 1.055l-0.085 0.011c0.601-0.104 1.487-1.187 1.84-1.625 0.515-0.631 0.925-1.372 1.19-2.178l0.014-0.049c0-0.061 0.059-0.147 0-0.189-0.029-0.016-0.063-0.026-0.099-0.026s-0.071 0.009-0.1 0.026l0.001-0.001c-1.272 0.705-2.746 1.294-4.297 1.691l-0.131 0.029c-0.027 0.009-0.058 0.014-0.091 0.014-0.086 0-0.163-0.035-0.219-0.091v0c-0.123-0.146-0.25-0.278-0.384-0.401l-0.003-0.003c-0.605-0.544-1.303-1.002-2.063-1.346l-0.051-0.021c-0.835-0.352-1.806-0.557-2.824-0.557-0.165 0-0.329 0.005-0.492 0.016l0.022-0.001c-1.154 0.075-2.22 0.385-3.173 0.882l0.044-0.021c-0.978 0.543-1.801 1.245-2.463 2.080l-0.013 0.017c-0.684 0.845-1.204 1.853-1.493 2.955l-0.012 0.055c-0.124 0.537-0.196 1.154-0.196 1.788 0 0.492 0.043 0.974 0.126 1.443l-0.007-0.050c0 0.18 0 0.206-0.154 0.18-6.131-0.903-11.161-3.078-15.271-7.747-0.181-0.206-0.275-0.206-0.421 0-1.79 2.717-0.921 7.016 1.314 9.14 0.301 0.284 0.611 0.559 0.937 0.817-1.086-0.079-2.086-0.372-2.983-0.837l0.043 0.020c-0.172-0.112-0.266-0.051-0.275 0.155-0.025 0.286-0.025 0.573 0 0.859 0.382 2.837 2.24 5.164 4.763 6.207l0.052 0.019c0.312 0.135 0.637 0.236 0.971 0.301-0.511 0.105-1.098 0.166-1.699 0.166-0.417 0-0.826-0.029-1.228-0.085l0.046 0.005c-0.206-0.043-0.284 0.069-0.206 0.266 1.263 3.44 4.007 4.488 6.019 5.074 0.275 0.042 0.551 0.042 0.86 0.111l-0.050 0.053c-0.594 1.083-2.992 1.814-4.093 2.192-1.48 0.549-3.19 0.866-4.974 0.866-0.459 0-0.913-0.021-1.361-0.062l0.058 0.004c-0.335-0.051-0.413-0.042-0.499 0s0 0.138 0.094 0.224c0.429 0.284 0.86 0.533 1.307 0.774 1.2 0.669 2.591 1.255 4.051 1.683l0.146 0.037c7.549 2.080 16.045 0.55 21.711-5.082 4.454-4.419 6.019-10.515 6.019-16.621 0-0.232 0.284-0.37 0.447-0.49 1.13-0.886 2.103-1.9 2.919-3.034l0.030-0.044c0.143-0.173 0.217-0.394 0.206-0.619 0-0.13 0-0.104-0.163-0.035z"></path>
</symbol>
<symbol id="Discord" viewBox="0 0 41 32">
<path d="M34.382 3.294c4.504 6.663 6.729 14.18 5.897 22.833-0.004 0.038-0.023 0.071-0.052 0.092l-0 0c-3.411 2.52-6.716 4.050-9.973 5.064-0.011 0.003-0.024 0.005-0.037 0.005-0.043 0-0.080-0.021-0.103-0.053l-0-0c-0.694-0.956-1.37-2.046-1.966-3.184l-0.070-0.147c-0.009-0.017-0.014-0.037-0.014-0.059 0-0.054 0.033-0.101 0.081-0.12l0.001-0c1.208-0.46 2.233-0.961 3.206-1.541l-0.093 0.051c0.038-0.023 0.063-0.064 0.063-0.111 0-0.042-0.020-0.079-0.051-0.103l-0-0c-0.245-0.184-0.447-0.344-0.645-0.509l0.025 0.020c-0.021-0.018-0.048-0.028-0.078-0.028-0.019 0-0.038 0.005-0.054 0.013l0.001-0c-6.451 2.997-13.517 2.997-20.044 0-0.015-0.007-0.032-0.010-0.050-0.010-0.030 0-0.058 0.011-0.079 0.028l0-0c-0.199 0.165-0.409 0.329-0.618 0.487-0.031 0.024-0.051 0.061-0.051 0.102 0 0.047 0.025 0.088 0.063 0.111l0.001 0c0.874 0.52 1.898 1.021 2.964 1.441l0.147 0.051c0.071 0.027 0.104 0.108 0.069 0.177-0.649 1.279-1.326 2.371-2.084 3.399l0.046-0.066c-0.024 0.031-0.061 0.051-0.103 0.051-0.013 0-0.025-0.002-0.037-0.005l0.001 0c-3.244-1.014-6.548-2.544-9.959-5.064-0.029-0.022-0.048-0.056-0.052-0.094l-0-0.001c-0.694-7.484 0.722-15.063 5.892-22.833 0.013-0.020 0.031-0.036 0.053-0.046l0.001-0c2.345-1.114 5.068-1.994 7.92-2.504l0.198-0.029c0.006-0.001 0.013-0.002 0.020-0.002 0.047 0 0.088 0.025 0.11 0.063l0 0.001c0.352 0.628 0.754 1.431 1.027 2.089 1.37-0.22 2.95-0.346 4.559-0.346s3.189 0.126 4.73 0.368l-0.171-0.022c0.362-0.855 0.701-1.541 1.071-2.207l-0.060 0.118c0.022-0.039 0.062-0.064 0.109-0.064 0.008 0 0.015 0.001 0.023 0.002l-0.001-0c3.050 0.54 5.773 1.42 8.317 2.618l-0.2-0.085c0.023 0.009 0.041 0.026 0.052 0.048zM17.479 17.525c0.031-2.213-1.572-4.044-3.585-4.044-1.996 0-3.584 1.815-3.584 4.044s1.62 4.043 3.585 4.043c1.996 0 3.584-1.814 3.584-4.043zM30.732 17.525c0.031-2.213-1.573-4.044-3.585-4.044-1.996 0-3.585 1.815-3.585 4.044s1.62 4.043 3.585 4.043c2.012 0 3.584-1.814 3.584-4.043z"></path>
</symbol>
<symbol id="Drained-Planet" viewBox="0 0 275 32">
<path fill="#fff" d="M19.943 14.85c0.134-2.987-0.847-5.974-2.452-8.783-2.319-4.013-5.885-6.019-10.521-6.063-1.382-0.045-2.675 0.268-4.013 0.49-1.872 0.312-2.496 0.803-2.63 2.63-0.178 3.345-0.49 6.687-0.223 10.031 0.134 1.917 0.089 3.789 0.178 5.706 0.089 1.828 0.134 3.701 0.267 5.573 0.134 1.248 0.312 2.497 0.49 3.745 0.134 0.892 0.579 1.605 1.382 2.006s1.649 0.802 2.541 0.892c3.7 0.223 7.178-0.49 9.853-3.344 3.299-3.567 5.127-7.712 5.127-12.883zM6.969 9.812c0-1.649-0.044-3.299 0-4.949 0-0.579 0.134-0.847 0.491-0.847 1.025 0 2.184 1.471 2.719 2.184 3.567 5.216 3.656 11.145 0.535 16.495-0.624 1.114-1.338 2.14-2.273 3.032-0.446 0.401-0.625 0.356-0.803-0.223-0.051-0.226-0.084-0.487-0.089-0.754l-0-0.004c-0.045-1.827-0.357-3.7-0.357-5.528 0.045-3.165-0.312-6.241-0.223-9.407zM29.939 25.103c-0.045-1.56-0.134-3.121-0.223-4.726 0-0.356 0-0.758 0.088-1.114 0.045-0.267 0.179-0.445 0.49-0.445 0.268 0 0.401 0.178 0.446 0.401 0.134 0.357 0.223 0.713 0.357 1.114 0.936 3.254 1.962 6.465 3.432 9.54 0.223 0.58 0.536 1.114 1.071 1.427 0.668 0.446 1.649 0.669 2.586 0.669 1.114 0 2.229-0.312 2.897-0.891 0.624-0.536 0.892-1.159 0.579-2.006-0.312-0.758-0.535-1.56-0.802-2.319l-3.21-8.292c-0.536-1.337-0.49-1.337 0.535-2.184 1.198-0.944 2.206-2.065 2.999-3.334l0.032-0.054c0.714-1.114 1.203-2.319 1.070-3.656-0.356-3.299-1.917-5.885-5.037-7.311-2.006-0.936-4.146-1.203-6.33-0.936-2.184 0.223-4.369 0.445-6.509 0.624-1.114 0.089-1.516 0.446-1.605 1.517-0.045 0.98-0.089 2.006-0.089 3.031-0.045 2.808-0.045 5.617-0.134 8.47-0.089 4.235 0 8.515 0.223 12.795 0.134 2.541 2.273 4.413 4.681 4.413 0.445 0 0.936-0.089 1.382-0.223 0.981-0.268 1.337-0.758 1.293-1.828-0.089-1.56-0.178-3.121-0.223-4.681zM29.404 9.901c-0.088-0.579-0.178-0.981-0.223-1.337-0.134-1.025-0.045-1.16 0.892-1.203h4.949c0.267 0 0.534 0 0.758 0.088 0.624 0.134 0.713 0.401 0.357 0.892-1.471 1.962-3.433 3.121-5.885 3.567-0.49 0.089-0.758-0.089-0.802-0.579-0.045-0.536-0.045-1.070-0.045-1.426zM55.667 0.584h-0.892c-3.388-0.045-4.547 2.318-5.394 5.082-2.229 7.445-4.191 14.89-5.439 22.558-0.134 1.025 0.134 1.56 1.070 2.051 0.936 0.536 1.962 0.446 2.986 0.401 1.382-0.089 2.23-0.803 2.541-2.184 0.223-0.981 0.401-1.917 0.579-2.854 0.223-0.981 0.357-1.070 1.293-1.114 1.516-0.089 3.032-0.178 4.547-0.223 0.625-0.045 1.338-0.312 1.828 0.089 0.49 0.357 0.267 1.114 0.357 1.694 0.401 2.675 0.356 3.789 4.235 3.923 0.178 0 0.357 0.045 0.535 0 1.783-0.134 2.63-1.070 2.586-2.898 0-0.49-0.045-0.981-0.089-1.516-0.49-3.923-1.114-7.846-1.917-11.725-0.536-2.898-1.203-5.706-2.229-8.47-1.115-2.943-3.299-4.949-6.599-4.815zM55.889 7.405c0.892 2.943 1.517 5.974 1.917 9.050 0.089 0.535-0.134 0.802-0.669 0.847-1.070 0.045-2.184 0.045-3.254 0.223-0.625 0.090-0.758-0.088-0.58-0.891 0.58-2.497 1.16-4.993 1.917-7.489 0.179-0.49 0.268-1.025 0.669-1.739zM68.189 12.264c-0.045 2.897-0.267 7.445-0.134 11.368 0.089 1.606 0.223 3.21 0.312 4.815 0.089 1.872 1.783 2.362 3.388 2.362 3.299 0 3.478-1.248 3.478-3.878-0.134-4.28 0.089-9.184-0.045-13.419-0.089-2.943-0.223-5.84-0.312-8.783-0.045-0.535-0.134-1.070-0.178-1.605-0.268-1.962-1.917-2.184-3.522-2.407-2.006-0.179-2.987 0.668-2.987 2.63v8.917zM84.779 12.309c0.401 0.178 0.446 0.49 0.625 0.713l2.808 4.949c0.446 0.802 0.847 1.605 1.605 2.184 0.535 0.401 0.669 0.847 0.624 1.516 0 2.586 0 5.082 0.357 7.667 0.267 1.828 2.318 2.497 3.967 2.497 0.49 0 0.981-0.045 1.516-0.223 1.338-0.446 1.784-1.114 1.65-2.497-0.179-1.516-0.357-2.987-0.357-4.503-0.045-4.637-0.089-9.228 0.134-13.82 0.089-2.006 0.178-4.057 0.268-6.063 0-0.713-0.045-1.471-0.045-2.184-0.090-1.516-2.051-2.095-3.299-2.095-1.382 0-3.032 0.357-3.165 2.006-0.178 1.56-0.49 3.121-0.535 4.681 0 0.357 0.045 0.758-0.267 1.248-0.268-0.445-0.49-0.802-0.758-1.159-1.203-1.917-2.452-3.789-4.013-5.439-0.891-0.981-1.961-1.517-3.388-1.249-2.095 0.357-4.904 1.338-4.904 3.879 0.045 2.051 0.045 4.146 0.045 6.196 0 4.057 0.045 8.070 0.045 12.127 0 2.051 0 4.057-0.045 6.063 0 1.203 0.356 2.051 1.649 2.274 0.936 0.178 1.827-0.045 2.719-0.401 1.738-0.579 2.184-1.203 2.318-2.987 0.312-3.878 0.312-7.757 0.268-11.635-0.045-1.203 0.089-2.452 0.178-3.745zM109.565 0.406c-5.305 0.178-8.292 3.343-8.872 8.070-0.223 2.006 0.49 3.745 1.872 5.215 0.312 0.312 0.714 0.625 0.179 1.114-1.962 2.006-2.586 4.503-2.719 7.178-0.134 2.63 0.624 4.993 2.675 6.821 1.426 1.293 3.923 2.051 6.33 2.051 1.56 0 3.076-0.312 4.28-1.025 2.943-1.783 4.458-5.439 3.478-8.381-0.625-1.872-2.274-2.318-4.057-2.407-1.962-0.045-2.809 0.936-2.319 2.853 0.401 1.694-0.356 2.943-1.471 4.102-0.268 0.267-0.49 0.401-0.714 0.401-0.535 0-0.936-1.070-1.025-1.517-0.535-1.871-0.356-3.699 0.401-5.439 0.713-1.56 1.873-2.585 3.789-2.407 0.892 0.089 1.784-0.089 2.586-0.446 1.070-0.49 1.293-1.293 0.714-2.273-0.307-0.52-0.748-0.932-1.276-1.195l-0.018-0.008c-1.427-0.714-2.897-1.16-4.547-0.981-1.025 0.134-1.203 0-1.337-1.071-0.178-1.293 0.267-2.451 0.802-3.521 0.892-1.828 2.274-2.898 4.414-2.898 0.669 0.045 1.337-0.089 1.694-0.802 0.268-0.58 0-1.293-0.669-1.917-0.981-0.758-2.987-1.517-4.191-1.517zM138.314 17.569c0.178-4.191-0.223-7.222-1.427-10.075-1.337-3.121-3.522-5.306-6.91-6.197-1.471-0.446-2.987-0.847-4.592-0.758-0.357 0.045-0.758-0.089-1.114-0.134-1.694-0.268-3.299 0.134-4.815 0.847-0.803 0.356-1.070 0.981-0.758 1.738 0.268 0.713 0.223 1.426 0.179 2.14-0.090 1.694-0.223 3.433-0.223 5.171-0.089 3.834-0.178 7.713 0.223 11.546 0.178 2.095 0.312 4.191 0.713 6.286s2.363 2.72 4.28 2.72c1.114 0.088 2.274 0.223 3.389-0.179 3.923-1.426 7.267-2.898 9.272-6.776 1.204-2.363 1.739-4.859 1.784-6.33zM131.047 14.003c-0.089 3.433-0.803 8.649-3.878 10.833-0.535 0.356-0.758 0.267-0.803-0.357-0.178-2.452-0.49-4.904-0.535-7.356-0.045-3.433-0.045-6.91-0.089-10.387 0-1.382 0.134-1.56 1.070-1.873 0.936-0.267 1.56-0.045 2.184 0.981 1.025 1.517 1.471 3.255 1.738 4.993 0.179 1.203 0.401 2.407 0.312 3.165zM154.084 0.495c-0.357 0-0.669 0.045-1.025 0.045-2.541 0.223-2.541 1.382-2.541 3.611-0.089 5.84 0.045 11.68 0.268 17.521 0.089 1.872 0.178 3.7 0.223 5.572 0.045 0.758 0.223 1.427 0.803 1.962 1.337 1.203 2.897 1.649 4.681 1.293 1.159-0.268 1.649-0.892 1.694-2.051 0.089-0.892 0.045-1.784-0.089-2.675-0.134-1.249-0.089-2.541-0.134-3.79 0-0.624 0.178-0.981 0.847-0.981 0.714-0.045 1.427-0.178 2.14-0.267 4.013-0.446 7.624-4.369 7.713-8.381 0.045-2.898-1.070-5.35-2.943-7.49-2.14-2.451-5.037-3.432-8.113-4.056-1.159-0.223-2.319-0.401-3.522-0.312zM157.829 15.653c-0.045-0.313-0.089-0.447-0.089-0.625l-0.267-8.605c0-0.267-0.045-0.49 0-0.758 0.089-0.579 0.312-0.713 0.891-0.445 0.089 0.044 0.223 0.133 0.312 0.178 1.738 1.382 2.408 3.254 2.408 5.35s-1.293 3.967-3.255 4.904zM177.992 15.117c0.134-3.165-0.134-6.821-0.223-10.477-0.045-0.981-0.223-1.917-0.981-2.541-1.114-0.892-2.407-1.293-3.745-1.293-1.427 0-1.962 0.624-1.962 2.051-0.045 1.738 0 3.477-0.089 5.216-0.223 4.681-0.401 9.362-0.446 14.043 0 1.337 0.045 2.675-0.089 4.056-0.089 0.803-0.089 1.56 0.045 2.363 0.357 1.783 1.248 2.586 3.032 2.586 1.649 0 3.299 0 4.948 0.089 1.917 0.134 3.879 0.134 5.841 0.134 1.738 0 2.764-0.847 3.031-2.586 0.179-1.114 0.090-2.273-0.356-3.343-0.49-1.203-1.293-1.828-2.63-1.828-1.784 0.045-3.522 0.045-5.306 0.045-1.025 0.044-1.070 0.044-1.070-1.025v-7.491zM200.904 0.584h-0.891c-3.389-0.045-4.547 2.318-5.395 5.082-2.229 7.445-4.191 14.89-5.439 22.558-0.134 1.025 0.134 1.56 1.070 2.051 0.936 0.536 1.962 0.446 2.987 0.401 1.382-0.089 2.229-0.803 2.541-2.184 0.223-0.981 0.401-1.917 0.58-2.854 0.223-0.981 0.356-1.070 1.293-1.114 1.516-0.089 3.032-0.178 4.547-0.223 0.624-0.045 1.337-0.312 1.827 0.089 0.49 0.357 0.268 1.114 0.357 1.694 0.401 2.675 0.357 3.789 4.235 3.923 0.178 0 0.357 0.045 0.535 0 1.784-0.134 2.63-1.070 2.586-2.898 0-0.49-0.045-0.981-0.089-1.516-0.49-3.923-1.114-7.846-1.917-11.725-0.535-2.898-1.203-5.706-2.229-8.47-1.114-2.943-3.299-4.949-6.598-4.815zM201.127 7.405c0.891 2.943 1.516 5.974 1.917 9.050 0.090 0.535-0.134 0.802-0.669 0.847-1.070 0.045-2.184 0.045-3.254 0.223-0.624 0.090-0.758-0.088-0.579-0.891 0.579-2.497 1.159-4.993 1.917-7.489 0.179-0.49 0.268-1.025 0.669-1.739zM220.961 12.309c0.401 0.178 0.446 0.49 0.624 0.713l2.809 4.949c0.446 0.802 0.847 1.605 1.605 2.184 0.535 0.401 0.669 0.847 0.624 1.516 0 2.586 0 5.082 0.357 7.667 0.267 1.828 2.318 2.497 3.967 2.497 0.49 0 0.981-0.045 1.516-0.223 1.338-0.446 1.784-1.114 1.649-2.497-0.178-1.516-0.356-2.987-0.356-4.503-0.045-4.637-0.089-9.228 0.134-13.82 0.089-2.006 0.178-4.057 0.268-6.063 0-0.713-0.045-1.471-0.045-2.184-0.089-1.516-2.050-2.095-3.299-2.095-1.382 0-3.032 0.357-3.165 2.006-0.178 1.56-0.49 3.121-0.535 4.681 0 0.357 0.045 0.758-0.267 1.248-0.268-0.445-0.49-0.802-0.758-1.159-1.203-1.917-2.452-3.789-4.013-5.439-0.891-0.981-1.961-1.517-3.388-1.249-2.095 0.357-4.904 1.338-4.904 3.879 0.045 2.051 0.045 4.146 0.045 6.196 0 4.057 0.045 8.070 0.045 12.127 0 2.051 0 4.057-0.045 6.063 0 1.203 0.356 2.051 1.649 2.274 0.936 0.178 1.827-0.045 2.719-0.401 1.738-0.579 2.184-1.203 2.318-2.987 0.312-3.878 0.312-7.757 0.268-11.635-0.045-1.203 0.089-2.452 0.178-3.745zM245.746 0.406c-5.305 0.178-8.292 3.343-8.872 8.070-0.223 2.006 0.49 3.745 1.872 5.215 0.312 0.312 0.714 0.625 0.179 1.114-1.962 2.006-2.586 4.503-2.72 7.178-0.134 2.63 0.625 4.993 2.675 6.821 1.426 1.293 3.923 2.051 6.33 2.051 1.56 0 3.076-0.312 4.28-1.025 2.943-1.783 4.458-5.439 3.478-8.381-0.625-1.872-2.274-2.318-4.057-2.407-1.962-0.045-2.809 0.936-2.319 2.853 0.401 1.694-0.356 2.943-1.471 4.102-0.268 0.267-0.49 0.401-0.714 0.401-0.535 0-0.936-1.070-1.025-1.517-0.535-1.871-0.356-3.699 0.401-5.439 0.713-1.56 1.873-2.585 3.789-2.407 0.892 0.089 1.784-0.089 2.586-0.446 1.070-0.49 1.293-1.293 0.714-2.273-0.307-0.52-0.748-0.932-1.276-1.195l-0.018-0.008c-1.427-0.714-2.897-1.16-4.547-0.981-1.025 0.134-1.203 0-1.337-1.071-0.179-1.293 0.267-2.451 0.802-3.521 0.892-1.828 2.274-2.898 4.414-2.898 0.669 0.045 1.337-0.089 1.694-0.802 0.268-0.58 0-1.293-0.669-1.917-0.981-0.758-2.987-1.517-4.191-1.517zM266.521 16.41c0.089-2.943 0.178-5.484 0.223-7.981 0.045-1.203 0.178-1.337 1.382-1.203 1.426 0.134 2.853 0.312 4.28 0.401 1.694 0.089 2.497-0.803 2.362-2.452-0.223-2.943-1.961-4.591-4.904-4.77h-0.624c-1.204-0.134-2.452-0.178-3.7-0.178-3.478 0-8.114 0.178-11.368 1.382-1.338 0.536-1.784 1.427-1.203 2.72 0.758 1.605 1.917 2.764 3.789 2.986 0.758 0.045 1.516 0.045 2.273 0.089 0.892 0.045 1.025 0.134 0.981 1.070-0.045 0.536-0.134 1.070-0.178 1.605-0.357 5.306-0.134 12.127 0.045 17.387 0 2.229 0.579 3.656 2.987 3.656 1.382 0 2.986-0.536 3.789-1.382 0.446-0.49 0.713-1.025 0.579-1.694-0.535-3.478-0.535-8.515-0.713-11.635z"></path>
</symbol>
<symbol id="Mint" viewBox="0 0 83 32">
<path d="M13.98 10.707c-0.045 0-0.134 0.045-0.223 0.045-1.525-4.022-2.41-6.153-3.321-8.269l0.694 1.814c-0.846-2.315-2.983-4.141-5.521-4.141-1.336 0-3.784 0.712-4.051 2.271l-0.134 1.425c-0.134 3.562-0.356 7.168-0.267 10.73 0 2.093-0.089 4.23 0 6.322 0.089 2.182 0.178 4.363 0.49 6.545 0.223 1.558 1.113 2.315 2.538 2.627 0.89 0.178 1.825 0.178 2.76-0.089 1.291-0.445 1.692-0.935 1.736-2.315 0.089-2.093-0.223-4.141-0.312-6.189-0.045-2.182-0.134-4.363-0.178-6.545 0.534 1.514 0.979 3.027 1.514 4.497 0.801 2.137 2.493 2.983 4.63 3.161 1.781 0.134 2.805-0.623 3.384-2.315 0.801-2.404 1.647-4.764 2.226-7.257 0.045-0.178 0.045-0.445 0.356-0.623-0.178 1.959 0 3.784-0.045 5.654-0.134 3.473-0.178 6.901-0.312 10.374-0.045 1.469 0.623 2.36 1.914 2.849 0.661 0.294 1.433 0.465 2.244 0.465 0.166 0 0.33-0.007 0.493-0.021l-0.021 0.001c1.558-0.089 2.36-0.801 2.493-2.36 0.134-1.514 0.223-3.072 0.312-4.586 0.223-3.918 0.089-7.836 0.089-11.754 0-2.226-0.223-4.452-0.668-6.634-0.623-3.206-2.582-4.942-5.743-5.432-1.603-0.223-3.873 0.312-4.675 2.582-0.356 1.069-0.801 2.093-1.158 3.161-0.445 1.336-0.801 2.671-1.247 4.007zM29.498 12.043c-0.045 2.894-0.267 7.435-0.134 11.353 0.089 1.603 0.223 3.206 0.312 4.808 0.089 1.87 1.781 2.36 3.384 2.36 3.295 0 3.473-1.247 3.473-3.873-0.134-4.274 0.089-9.171-0.045-13.401-0.089-2.938-0.223-5.832-0.312-8.771-0.045-0.534-0.134-1.069-0.178-1.603-0.267-1.959-1.914-2.182-3.517-2.404-2.003-0.178-2.983 0.668-2.983 2.627v8.904zM46.066 12.088c0.401 0.178 0.445 0.49 0.623 0.712l2.805 4.942c0.445 0.801 0.846 1.603 1.603 2.182 0.534 0.401 0.668 0.846 0.623 1.514 0 2.582 0 5.075 0.356 7.658 0.267 1.825 2.315 2.493 3.962 2.493 0.49 0 0.979-0.045 1.514-0.223 1.336-0.445 1.781-1.113 1.647-2.493-0.178-1.514-0.356-2.983-0.356-4.497-0.045-4.63-0.089-9.216 0.134-13.802l0.267-6.055c0-0.712-0.045-1.469-0.045-2.182-0.089-1.514-2.048-2.093-3.295-2.093-1.38 0-3.027 0.356-3.161 2.003-0.178 1.558-0.49 3.117-0.534 4.675 0 0.356 0.045 0.757-0.267 1.247-0.264-0.452-0.514-0.83-0.782-1.193l0.025 0.036c-1.202-1.914-2.449-3.784-4.007-5.432-0.89-0.979-1.959-1.514-3.384-1.247-2.093 0.356-4.897 1.336-4.897 3.873 0.045 2.048 0.045 4.141 0.045 6.189 0 4.051 0.045 8.058 0.045 12.11 0 2.048 0 4.051-0.045 6.055 0 1.202 0.356 2.048 1.647 2.271 0.935 0.178 1.825-0.045 2.716-0.401 1.736-0.579 2.182-1.202 2.315-2.983 0.312-3.873 0.312-7.747 0.267-11.62-0.045-1.202 0.089-2.449 0.178-3.74zM74.695 16.184c0.089-2.938 0.178-5.476 0.223-7.969 0.045-1.202 0.178-1.336 1.38-1.202 1.425 0.134 2.849 0.312 4.274 0.401 1.692 0.089 2.493-0.801 2.36-2.449-0.223-2.938-1.959-4.586-4.897-4.764h-0.623c-1.040-0.114-2.246-0.179-3.466-0.179-0.080 0-0.161 0-0.241 0.001l0.012-0c-3.473 0-8.103 0.178-11.353 1.38-1.336 0.534-1.781 1.425-1.202 2.716 0.757 1.603 1.914 2.76 3.784 2.983 0.757 0.045 1.514 0.045 2.271 0.089 0.89 0.045 1.024 0.134 0.979 1.069-0.045 0.534-0.134 1.069-0.178 1.603-0.356 5.298-0.134 12.11 0.045 17.363 0 2.226 0.579 3.651 2.983 3.651 1.38 0 2.983-0.534 3.784-1.38 0.445-0.49 0.712-1.024 0.579-1.692-0.534-3.473-0.534-8.504-0.712-11.62z"></path>
</symbol>
<symbol id="play" viewBox="0 0 32 32">
<path d="M6 4l20 12-20 12z"></path>
</symbol>
<symbol id="pause" viewBox="0 0 32 32">
<path d="M4 4h10v24h-10zM18 4h10v24h-10z"></path>
</symbol>
<symbol id="Drained-Planets" viewBox="0 0 205 32">
<path fill="#fff" style="fill: var(--color1, #fff)" d="M6.996 29.146c-0.394 0-0.789-0.080-1.183-0.24-0.048 0-0.192-0.039-0.432-0.12 0 0.053-0.027 0.080-0.080 0.080-0.888-0.283-1.655-0.63-2.372-1.052l0.054 0.029c-0.080 0.027-0.12 0.053-0.12 0.080-0.187-0.069-0.592-0.378-1.216-0.927-0.618-0.544-0.933-0.942-0.943-1.191-0.421-1.018-0.632-1.962-0.632-2.831-0.027 0-0.040-0.027-0.040-0.080l0.040-0.784-0.040-0.391c0.027-0.149 0.040-0.36 0.040-0.632 0-0.027 0.013-0.040 0.039-0.040l-0.039-0.080 0.039-0.552c-0.016-0.469-0.042-0.704-0.080-0.704l0.040-0.24-0.040-2.398 0.040-0.544c-0.026-0.095-0.040-0.203-0.040-0.315 0-0.002 0-0.004 0-0.005v0l0.040-0.311-0.040-0.354c0-0.059 0.014-0.112 0.040-0.16l-0.072-1.062c0-0.027 0.011-0.039 0.032-0.039l-0.032-0.272v-0.391c0-0.027 0.011-0.040 0.032-0.040 0-0.027-0.011-0.040-0.032-0.040l0.072-1.687c-0.021-0.094-0.035-0.204-0.040-0.316l-0-0.004 0.040-0.192-0.040-0.199 0.040-0.272c0-0.181-0.014-0.338-0.040-0.472 0-2.953 0.134-5.181 0.4-6.684l0.040-0.551 0.352-0.080c0.053 0 0.080 0.014 0.080 0.040 0.661-0.043 1.027-0.093 1.095-0.152 0.067 0.047 0.15 0.076 0.24 0.079l0.001 0c0.149 0 0.24-0.014 0.272-0.040 0.144 0.027 0.261 0.040 0.352 0.040 0.128 0 0.261-0.014 0.4-0.040 1.018 0.155 1.527 0.299 1.527 0.432 0.123 0 0.267 0.103 0.432 0.311l0.28 0.080h0.592c0.059 0.043 0.293 0.093 0.704 0.152 0.496 0.182 1.031 0.549 1.607 1.104 0.581 0.549 0.871 0.838 0.871 0.864 0.208 0.309 0.379 0.519 0.512 0.631 0 0.033 0.077 0.123 0.231 0.272 0.005 0.080 0.136 0.224 0.392 0.432 0.325 0.539 0.602 0.906 0.832 1.104 0.005 0.080 0.069 0.171 0.192 0.272l0.351 0.512c0.085 0.096 0.192 0.334 0.32 0.711 0.379 0.544 0.613 1.003 0.704 1.376 0.186 0.49 0.343 0.858 0.471 1.104 0 0.085 0.21 0.858 0.632 2.319 0.235 0.949 0.352 1.524 0.352 1.727l-0.080 0.16c0.101 1.045 0.194 1.567 0.28 1.567 0.048 0.768 0.071 1.357 0.071 1.767 0 0.357 0.014 0.647 0.040 0.871-0.101 1.024-0.272 1.797-0.512 2.319-0.219 1.152-0.375 1.728-0.472 1.728-0.032 0-0.123 0.22-0.272 0.663l-0.551 0.912c-0.197 0.533-0.485 0.912-0.864 1.136 0 0.149-0.184 0.293-0.551 0.432 0 0.134-0.562 0.421-1.688 0.864-0.698 0.134-1.282 0.199-1.751 0.199-0.25 0-0.558 0.040-0.92 0.121zM7.069 27.098c0.485-0.585 0.852-1.084 1.103-1.495 0.394-0.853 0.682-2.174 0.863-3.965 0-0.25 0.014-0.552 0.040-0.904-0.025-0.13-0.040-0.279-0.040-0.431v-0l0.040-0.080-0.040-0.080c0.049-0.103 0.078-0.224 0.080-0.351v-0.001c-0.133-1.562-0.224-2.505-0.272-2.831l0.039-0.080c-0.106-0.368-0.263-1.114-0.472-2.239-0.187-0.458-0.411-1.127-0.671-2.007-0.122-0.224-0.307-0.669-0.552-1.335-0.396-0.811-0.841-1.509-1.353-2.151l0.018 0.023-0.080-0.040c-0.035 0.114-0.062 0.25-0.079 0.389l-0.001 0.011v0.071l0.080 0.592c0 0.106-0.027 0.16-0.080 0.16l0.040 0.311c-0.011 0.762-0.048 1.144-0.112 1.144l0.032 0.152c0 0.069-0.024 0.214-0.072 0.432l0.040 0.24c-0.023 0.345-0.038 0.756-0.040 1.169l-0 0.007v0.24l-0.039 0.232c0 0.027 0.013 0.039 0.039 0.039l-0.039 0.28v0.432c0 0.096-0.014 0.213-0.040 0.351 0.080 0.235 0.12 0.483 0.12 0.744 0 0.134-0.027 0.199-0.080 0.199l0.039 0.472v0.472c0 0.342-0.013 0.696-0.039 1.064 0.027 0.144 0.039 0.287 0.039 0.432l-0.039 0.192c0.027 0.048 0.039 0.101 0.039 0.16 0 0.026-0.013 0.066-0.039 0.119 0.025 0.124 0.040 0.266 0.040 0.412s-0.014 0.288-0.042 0.426l0.002-0.014c0 0.026 0.013 0.039 0.039 0.039l-0.039 0.272v0.24c0 0.080 0.013 0.12 0.039 0.12l-0.039 0.192v1.143l-0.040 0.473h0.040l-0.121 0.704c0 1.076 0.224 2.15 0.672 3.222 0.464 0.421 0.789 0.631 0.976 0.631zM20.726 28.858c-0.005-0.045-0.020-0.085-0.041-0.121l0.001 0.001-0.192 0.039c-0.117-0.17-0.314-0.274-0.592-0.311 0-0.055-0.027-0.080-0.080-0.080l-0.272 0.039c-0.101-0.261-0.272-0.391-0.512-0.391-0.106 0-0.197-0.078-0.272-0.232l-0.672-0.28c-0.085 0-0.306-0.131-0.664-0.391-0.128 0-0.192-0.014-0.192-0.040 0.042-0.066 0.069-0.146 0.073-0.231l0-0.001c-0.075-0.197-0.243-0.981-0.505-2.35l0.032-0.161-0.152-1.919c0.027-0.138 0.040-0.269 0.040-0.391-0.086-1.285-0.152-1.927-0.2-1.927l0.040-0.272v-0.232c0-0.224-0.027-0.498-0.080-0.823 0-0.059 0.014-0.112 0.040-0.161-0.026-0.225-0.040-0.485-0.040-0.749 0-0.020 0-0.041 0-0.061l-0 0.003c0-0.426-0.024-0.64-0.071-0.64l0.032-0.199v-0.16c0-0.107-0.051-0.262-0.153-0.464v-0.040h0.040v0.080h0.080c0.003-0.044 0.014-0.084 0.033-0.121l-0.001 0.002c-0.058-0.731-0.11-1.096-0.153-1.096 0.027-0.144 0.040-0.251 0.040-0.32 0-0.389-0.026-0.754-0.080-1.095 0-0.027 0.013-0.040 0.039-0.040-0.096-0.969-0.199-2.864-0.311-5.685 0.021-0.133 0.031-0.29 0.031-0.472l-0.032-0.624c-0.053 0.005-0.080 0.029-0.080 0.072v0.32l-0.040 0.192h-0.039l-0.040-0.352 0.040-0.16-0.080-0.232c0-0.027 0.014-0.039 0.040-0.039l-0.080-1.336c0.043-0.059 0.082-0.213 0.121-0.464 0.053 0 0.080-0.080 0.080-0.24h0.040v1.024h0.071c0-0.091 0.014-0.157 0.040-0.2l-0.040-0.192 0.040-0.432-0.040-0.16c0.076-0.238 0.12-0.511 0.12-0.795 0-0.018-0-0.037-0.001-0.055l0 0.003c0.038-0.070 0.091-0.245 0.16-0.528l0.272-0.432v-0.073c-0.107 0.076-0.277 0.363-0.512 0.864h-0.040v-0.119c0.091-0.4 0.366-0.805 0.824-1.216l0.12 0.080c0-0.287 0.89-0.615 2.671-0.983 0.027 0 0.064 0.013 0.112 0.039 0.613-0.076 1.322-0.119 2.041-0.119 0.013 0 0.027 0 0.040 0h-0.002c0.581 0 1.521 0.21 2.822 0.631 0.954 0.469 1.53 0.704 1.727 0.704 0.592 0.282 1.154 0.7 1.687 1.255 0.602 0.768 0.903 1.434 0.903 1.999 0.027 0 0.040 0.027 0.040 0.080l-0.040 0.080 0.080 0.392c-0.245 1.161-0.483 1.855-0.712 2.078-0.208 0.587-0.442 0.966-0.704 1.136-0.24 0.347-0.433 0.608-0.582 0.784v0.080c0.282 0.272 0.423 0.637 0.423 1.095 0.027 0 0.040 0.014 0.040 0.040l-0.040 0.080c0.134 0.32 0.266 0.882 0.4 1.687 0.208 0.614 0.416 1.397 0.624 2.352 0.47 1.637 0.914 3.387 1.335 5.253l-0.039 0.080v0.352l-0.352 0.432c0 0.053-0.287 0.080-0.863 0.080 0-0.053-0.027-0.080-0.080-0.080h-0.080l-0.312 0.080c-0.133-0.17-0.327-0.287-0.548-0.319l-0.005-0.001-0.231 0.040c0-0.048-0.157-0.085-0.472-0.112 0-0.080-0.091-0.12-0.272-0.12l-0.24 0.040c-0.042-0.102-0.277-0.232-0.704-0.392 0-0.363-0.183-0.65-0.551-0.864-0.154-0.213-0.494-1.559-1.015-4.038-0.289-0.953-0.616-2.286-0.889-3.64l-0.055-0.326c0-0.288-0.144-0.432-0.432-0.432-0.309-0.048-0.647-0.189-1.015-0.424-0.022-0.091-0.107-0.17-0.256-0.24-0.064 0-0.096 0.040-0.096 0.12l0.032 0.392-0.032 0.231c0.045 0.096 0.072 0.208 0.072 0.327 0 0.009-0 0.018-0 0.026l0-0.001-0.039 0.16c0.050 0.088 0.080 0.194 0.080 0.307 0 0.002 0 0.004-0 0.005v-0 0.592c0.053 0.336 0.093 0.818 0.12 1.447l-0.039 0.24c0.040 0.067 0.068 0.145 0.079 0.228l0 0.003-0.040 0.2c0.054 0.597 0.093 1.3 0.121 2.111 0 0.026-0.014 0.039-0.040 0.039l0.040 0.28v0.505c0.005 1.097 0.029 1.647 0.071 1.647l-0.032 0.392v1.415c0.043 1.359 0.093 2.039 0.152 2.039l-0.039 0.231 0.32 1.847-0.040 0.16c0.208 0.757 0.311 1.344 0.311 1.76-0.208 0.341-0.338 0.512-0.391 0.512 0 0.069-0.117 0.122-0.351 0.159 0 0.027-0.094 0.091-0.281 0.192h-0.192l-0.471 0.040zM21.197 8.659c0.64-0.293 1.109-0.578 1.408-0.855 0.006-0.054 0.266-0.328 0.784-0.824 0.394-0.672 0.592-1.432 0.592-2.279 0-0.362-0.131-0.61-0.392-0.743-0.128-0.181-0.415-0.272-0.863-0.272-0.736 0-1.168 0.103-1.296 0.311 0 0.080-0.104 0.211-0.312 0.393-0.080 0.234-0.12 0.653-0.12 1.254 0 0.469-0.014 0.875-0.040 1.216 0 0.027 0.014 0.039 0.040 0.039l-0.040 0.192c0 0.214 0.027 0.592 0.080 1.136h-0.040c0.085 0.288 0.152 0.432 0.199 0.432zM36.285 30.192c-0.049-0.026-0.107-0.041-0.169-0.041-0.008 0-0.016 0-0.024 0.001l0.001-0v0.040l-0.080-0.040h-0.16c-1.098-0.202-1.648-0.373-1.648-0.512-0.095 0-0.421-0.261-0.975-0.783-0.048 0-0.402-0.352-1.064-1.056 0-0.17-0.288-0.458-0.863-0.863 0-0.085-0.195-0.283-0.584-0.592 0-0.016-0.144-0.198-0.432-0.544-0.314-0.576-0.472-0.994-0.472-1.255l0.040-0.2c-0.023-0.105-0.037-0.226-0.040-0.35l-0-0.002c0.053 0 0.104-0.522 0.152-1.567 0.288-1.705 0.643-3.065 1.063-4.078 0.086-0.41 0.491-1.104 1.216-2.079 0.799-0.944 2.263-1.415 4.389-1.415h0.984c0.053 0 0.355 0.054 0.903 0.16h0.432l0.032-0.199v-0.352c0-0.027-0.010-0.040-0.032-0.040l0.032-0.072c-0.045-0.090-0.071-0.197-0.071-0.309 0-0.004 0-0.008 0-0.011v0.001-0.543c0.101-0.245 0.152-0.587 0.152-1.024h-0.040l0.040-0.080v-0.040c-0.064-0.073-0.106-0.167-0.112-0.27l-0-0.001c0-0.117 0.051-0.302 0.153-0.552l-0.040-0.071c0.021-0.094 0.035-0.204 0.040-0.316l0-0.004c-0.080-0.128-0.121-0.232-0.121-0.312v-0.232l0.040-0.080c-0.101-0.037-0.152-0.078-0.152-0.121v-0.935c0-0.117 0.027-0.224 0.080-0.32l-0.080-0.472c0.027-0.347 0.040-0.631 0.040-0.855l-0.040-0.552c0.027-0.106 0.040-0.197 0.040-0.272-0.064-0.341-0.131-0.512-0.2-0.512h-0.080c-0.64 0.181-1.176 0.506-1.607 0.976-0.128 0.069-0.336 0.267-0.624 0.592-0.256 0.219-0.584 0.664-0.984 1.335-0.421 0.523-0.736 0.784-0.944 0.784 0 0.069-0.155 0.146-0.464 0.232h-0.32c-0.038 0-0.206-0.051-0.504-0.153-0.034 0.021-0.075 0.035-0.118 0.040l-0.001 0c-0.128-0.16-0.376-0.357-0.744-0.592 0-0.149-0.157-0.306-0.472-0.472-0.080-0.16-0.119-0.264-0.119-0.312l0.080-0.16c-0.235-0.101-0.352-0.219-0.352-0.352-0.171 0-0.274-0.117-0.312-0.352-0.064 0-0.185-0.131-0.36-0.391-0.128 0-0.192-0.067-0.192-0.2 0-0.208-0.103-0.312-0.311-0.312 0-0.080 0.090-0.25 0.272-0.512 0-0.208 0.144-0.375 0.432-0.503 0.021-0.080 0.218-0.318 0.592-0.712 0.41-0.421 0.686-0.72 0.823-0.896 0.064 0 0.272-0.156 0.624-0.471 0.064 0 0.298-0.131 0.704-0.392 0.112 0 0.295-0.067 0.551-0.2v0.040c0.501-0.128 0.887-0.192 1.159-0.192 0.405 0 0.775 0.038 1.112 0.112h0.28c0.757 0 1.33 0.117 1.719 0.351 1.28 0.293 2.522 1.093 3.726 2.399 1.099 1.344 1.648 2.348 1.648 3.014 0.123 0 0.216 0.509 0.28 1.527l-0.040 0.281 0.040 0.192-0.040 0.199c0 0.027 0.014 0.067 0.040 0.12-0.053 0.4-0.093 1.027-0.12 1.88l0.040 0.080c-0.048 0-0.089 0.743-0.12 2.231l-0.040 0.080c0.026 0.053 0.040 0.093 0.040 0.119l-0.080 1.608 0.040 0.192c-0.128 1.86-0.245 2.944-0.352 3.254-0.069 0-0.133 0.327-0.192 0.984-0.316 1.518-0.697 2.819-1.166 4.077l0.063-0.192c-0.565 1.024-0.969 1.69-1.216 1.999-0.122 0.39-0.631 0.872-1.527 1.447-0.117 0.192-0.653 0.44-1.606 0.744-1.013 0.133-1.575 0.199-1.688 0.199zM34.799 26.307c0.848-0.24 1.722-1.221 2.622-2.942 0.544-1.045 0.976-2.86 1.296-5.445l-0.12-0.080c-0.81 0.122-1.216 0.24-1.216 0.352-0.069 0-0.277 0.171-0.624 0.512-0.069 0.026-0.16 0.184-0.272 0.472-0.368 0.362-0.682 1.042-0.944 2.039l-0.592 2.271c-0.176 0-0.293 0.706-0.352 2.118 0 0.469 0.067 0.704 0.2 0.704zM50.366 9.571l-0.28-0.039c-0.144 0.027-0.247 0.039-0.311 0.039-0.235-0.031-0.353-0.071-0.353-0.119-0.067 0.047-0.15 0.076-0.239 0.079l-0.001 0c-0.021 0-0.032-0.014-0.032-0.040-0.034 0.021-0.075 0.035-0.118 0.040l-0.001 0c-0.048-0.005-0.152-0.069-0.312-0.192l-0.2 0.039c0-0.085-0.131-0.165-0.391-0.24 0-0.085-0.185-0.163-0.552-0.231-0.16-0.235-0.327-0.352-0.503-0.352 0-0.048-0.119-0.115-0.353-0.2-0.368-0.32-0.551-0.567-0.551-0.743-0.080-0.192-0.16-0.677-0.24-1.456l0.080-1.216-0.040-0.151 0.040-0.312c-0.027-0.347-0.040-0.635-0.040-0.864-0.037 0-0.088-0.053-0.152-0.16 0-0.037 0.050-0.077 0.152-0.12 0.080 0.027 0.12 0.053 0.12 0.080l0.080-0.039h0.12c0.048 0.010 0.072 0.037 0.072 0.080l0.199-0.040h0.040c0.357 0.096 0.579 0.189 0.664 0.28 0.043-0.133 0.123-0.199 0.24-0.199 0 0.016 0.078 0.093 0.232 0.231 0.027 0 0.040-0.010 0.040-0.032l0.624 0.153c0.045-0.025 0.099-0.040 0.156-0.040 0.001 0 0.003 0 0.004 0h-0c0.053 0.096 0.381 0.28 0.983 0.551 0.389 0.331 0.701 0.539 0.936 0.624 0 0.203 0.067 0.387 0.199 0.552l0.232 0.903c0.107 0.373 0.224 0.704 0.352 0.992-0.021 0.538-0.059 0.901-0.112 1.087 0 0.027 0.014 0.040 0.040 0.040-0.037 0.443-0.117 0.664-0.24 0.664 0 0.16-0.195 0.277-0.584 0.351zM49.223 29.569h-0.112v-0.080h-0.12l-0.080 0.039c0-0.048-0.027-0.071-0.080-0.071-0.074 0-0.178 0.024-0.311 0.071l-0.080-0.039-0.232 0.039c-0.064-0.042-0.298-0.106-0.704-0.192 0-0.106-0.274-0.223-0.823-0.351-0.027 0-0.238-0.171-0.632-0.512h-0.040v-0.040c-0.181-0.896-0.272-1.615-0.272-2.159 0-0.165 0.013-0.36 0.039-0.584-0.053-0.602-0.080-1.492-0.080-2.67 0-0.299-0.014-0.534-0.040-0.704 0.027-0.208 0.067-0.992 0.12-2.351l0.040-0.080-0.040-0.080 0.040-0.232c0-0.001 0-0.002 0-0.004 0-0.057-0.015-0.111-0.041-0.158l0.001 0.002 0.040-0.080c-0.021-0.262-0.048-0.392-0.080-0.392l0.039-0.231c0-0.581-0.013-1.941-0.039-4.078 0-0.203 0.026-0.832 0.080-1.888l-0.040-0.071 0.080-0.984c0-0.309-0.093-0.53-0.28-0.664v-0.040l0.16-0.119h0.080l0.112 0.080 0.24-0.040c0.080 0.027 0.12 0.053 0.12 0.080l0.152-0.080c0.432 0.155 0.68 0.232 0.744 0.232 0.064-0.054 0.194-0.091 0.391-0.112 0.101 0.021 0.208 0.032 0.32 0.032h0.040c0.010 0.107 0.048 0.16 0.112 0.16 0-0.037 0.040-0.078 0.12-0.12 0.176 0 0.334 0.093 0.472 0.28h0.080c0.005-0.053 0.029-0.080 0.071-0.080 0.203 0.043 0.477 0.201 0.824 0.473 0.197 0 0.485 0.181 0.864 0.543 0 0.048 0.080 0.206 0.24 0.472 0 0.043 0.037 0.24 0.112 0.592l-0.032 0.584 0.032 0.711c-0.016 0.155-0.040 0.232-0.073 0.232 0.027 0.059 0.051 0.256 0.073 0.592-0.022 0.138-0.032 0.256-0.032 0.352 0.101 0.149 0.165 0.474 0.192 0.976l-0.040 0.16c0.053 1.018 0.106 1.527 0.16 1.527l-0.040 0.16c0.026 0.49 0.053 0.792 0.080 0.903-0.021 0.032-0.035 0.070-0.039 0.111l-0 0.001 0.039 0.359c-0.053 0.080-0.080 0.144-0.080 0.192 0 0.058 0.014 0.112 0.040 0.16-0.023 0.105-0.037 0.226-0.040 0.35l-0 0.002 0.16 0.784-0.040 0.311 0.040 0.24c-0.075 0.496-0.128 0.744-0.16 0.744l0.040 0.152-0.040 0.631 0.040 0.080c-0.027 0.155-0.054 0.232-0.080 0.232l0.040 0.272v1.216c0 0.095 0.014 0.215 0.040 0.359 0 0.021-0.014 0.032-0.040 0.032l0.040 0.2c0 0.117-0.014 0.194-0.040 0.231 0.026 0.224 0.040 0.408 0.040 0.552v0.432c0 0.65-0.104 1.106-0.313 1.367-0.202 0.267-0.346 0.4-0.432 0.4-0.298 0.336-0.573 0.503-0.823 0.503 0-0.048-0.027-0.071-0.080-0.071-0.16 0-0.24 0.050-0.24 0.152zM56.307 29.529c-0.079-0.040-0.172-0.066-0.27-0.071l-0.002-0c-0.091 0.016-0.198 0.028-0.307 0.032l-0.004 0c-0.005-0.054-0.149-0.131-0.432-0.232 0-0.058-0.119-0.125-0.359-0.2v-0.071h-0.072c0 0.074-0.026 0.112-0.080 0.112-0.24-0.154-0.416-0.231-0.528-0.231-0.043 0-0.064 0.013-0.064 0.039-0.022 0-0.243-0.144-0.664-0.432l-0.2-0.472 0.12-0.823-0.039-0.080 0.16-0.864v-0.272c0-0.027 0.013-0.040 0.039-0.040 0-0.027-0.013-0.040-0.040-0.040l0.040-0.192v-0.551l-0.040-0.192-0.080 0.032h-0.080c-0.128-0.997-0.192-1.78-0.192-2.351 0.032 0 0.082-0.064 0.152-0.192l-0.080-0.12v-0.040c0-0.026 0.014-0.040 0.040-0.040-0.048-0.117-0.072-0.287-0.072-0.512h0.032c-0.021-0.048-0.059-0.242-0.112-0.583 0.027-0.16 0.053-0.24 0.080-0.24l-0.039-0.392v-1.879c0.002-0.126 0.017-0.247 0.042-0.365l-0.002 0.013c-0.048-0.072-0.078-0.16-0.080-0.256v-0c0-0.074 0.013-0.133 0.040-0.176-0.054-0.096-0.107-0.266-0.16-0.512l0.040-0.080c-0.054-0.198-0.093-0.523-0.121-0.976 0-0.027 0.014-0.040 0.040-0.040l-0.040-0.391v-0.2l-0.080-2.15c0-0.096 0.013-0.217 0.040-0.36l-0.040-0.232c0.053-0.816 0.080-1.351 0.080-1.607h0.040l-0.040-0.080c0-0.096 0.014-0.213 0.040-0.352-0.128-1.364-0.192-2.202-0.192-2.511 0.101-0.053 0.152-0.117 0.152-0.192-0.026-0.037-0.039-0.103-0.039-0.199 0.080 0 0.119-0.040 0.119-0.121-0.128-0.592-0.192-1.285-0.192-2.078v-0.896c0-0.154-0.013-0.366-0.039-0.631l0.040-0.080c-0.025-0.186-0.039-0.403-0.040-0.623v-0.001c0-0.683 0.131-1.024 0.392-1.024l0.152-0.072 0.080 0.032 0.24-0.032c0.059 0 0.11 0.011 0.152 0.032 0.411-0.122 0.763-0.266 1.098-0.44l-0.035 0.016c0-0.048 0.117-0.088 0.352-0.12 0-0.027 0.013-0.040 0.039-0.040l0.153 0.040 0.24-0.121h0.040c0.048 0.011 0.071 0.038 0.071 0.080 0.23-0.021 0.374-0.061 0.432-0.12h0.080c0.147 0.1 0.315 0.194 0.492 0.272l0.020 0.008c0 0.043 0.091 0.106 0.272 0.192 0.075 0.149 0.232 0.293 0.472 0.432 0.427 0.464 0.805 1.066 1.136 1.808 0.784 1.957 1.296 3.339 1.536 4.149l0.391 1.216 0.976 3.374c0 0.182 0.080 0.416 0.24 0.704 0 0.213 0.038 0.32 0.112 0.32l0.119-0.592h-0.039l0.040-0.080v-0.112c0-0.091-0.040-0.184-0.12-0.28v-0.192l0.119-0.16v-0.040c0-0.053-0.026-0.080-0.080-0.080 0-0.075 0.014-0.165 0.040-0.272-0.027-0.389-0.040-0.713-0.040-0.976 0-0.138 0.014-0.362 0.040-0.671-0.008-0.132-0.052-0.253-0.121-0.354l0.002 0.002v-0.432h0.080l-0.039-0.272v-0.080c-0.075 0-0.112-0.027-0.112-0.080s0.038-0.080 0.112-0.080c-0.025-0.437-0.039-0.951-0.040-1.469v-0.003c0-0.218 0.013-0.327 0.040-0.327l-0.040-0.080v-0.232l-0.072-1.375v-0.392c0-0.112 0.011-0.256 0.032-0.432-0.020-0.046-0.032-0.099-0.032-0.155 0-0.002 0-0.004 0-0.006v0c0.059 0 0.11 0.157 0.152 0.472h0.040c-0.027-0.261-0.040-0.586-0.040-0.976h-0.039c0 0.261-0.038 0.392-0.112 0.392l-0.040-0.392 0.040-0.080 0.072 0.040h0.040v-0.121c-0.128 0-0.192-0.067-0.192-0.199v-0.352l0.080-0.112-0.080-0.119v-0.784c0-0.16 0.157-0.514 0.472-1.063 0-0.144 0.208-0.455 0.624-0.935 0.069-0.171 0.135-0.264 0.2-0.28h0.039l0.192 0.16c0.001 0 0.002 0 0.004 0 0.057 0 0.111-0.015 0.158-0.041l-0.002 0.001c0.192 0.133 0.323 0.2 0.391 0.2v0.272h0.040c0.112-0.080 0.203-0.12 0.272-0.12 0.021 0.106 0.048 0.16 0.080 0.16l0.192-0.040c0 0.128 0.238 0.192 0.711 0.192 0-0.027 0.011-0.040 0.032-0.040l0.28 0.2 0.192-0.12h0.040c0.256 0.234 0.57 0.457 0.944 0.671 0 0.085 0.091 0.149 0.272 0.192l0.040 0.592h-0.040l0.040 0.080v0.935c0 0.001 0 0.002 0 0.004 0 0.057-0.015 0.111-0.041 0.158l0.001-0.002c0.027 0.042 0.040 0.178 0.040 0.408 0 0.261-0.013 0.413-0.040 0.455l0.040 0.232v0.512c0 0.085 0.014 0.149 0.040 0.192l-0.040 0.24c0 0.341 0.027 0.629 0.080 0.863 0 0.027-0.013 0.040-0.039 0.040l0.039 0.392v1.255l-0.039 0.231c0.026 0.048 0.039 0.101 0.039 0.16l-0.039 0.072 0.080 0.592c-0.026 0.133-0.040 0.304-0.040 0.512 0 0.053 0.014 0.080 0.040 0.080-0.106 0.747-0.16 1.202-0.16 1.368l0.040 0.080c-0.021 0.034-0.035 0.075-0.040 0.118l-0 0.001 0.040 0.153-0.040 0.080 0.12 0.823c-0.117 0-0.183 0.694-0.199 2.080v0.983c-0.048 0.267-0.139 1.338-0.272 3.215-0.123 0.117-0.214 0.757-0.272 1.92-0.117 0-0.261 1.097-0.432 3.293-0.101 0.283-0.219 0.922-0.352 1.92 0.027 0.137 0.040 0.269 0.040 0.391-0.043 0-0.096 0.053-0.16 0.16v0.272c-0.091 0-0.157 0.093-0.2 0.28-0.112 0-0.202 0.064-0.272 0.192h-0.232c0 0.107-0.026 0.16-0.080 0.16h-0.312l-0.12-0.080-0.232 0.121-0.2-0.040c-0.034 0.020-0.074 0.035-0.117 0.040l-0.002 0-0.153-0.2-0.2 0.040c-0.219-0.12-0.403-0.279-0.548-0.468l-0.003-0.004c-0.075 0-0.256-0.078-0.544-0.232-0.225-0.065-0.422-0.158-0.599-0.276l0.008 0.005c-0.187 0-0.344-0.21-0.472-0.632-0.245-0.384-0.453-0.906-0.624-1.567-0.123-0.155-0.293-0.613-0.512-1.376-0.208-0.373-0.743-1.98-1.607-4.821-0.037-0.235-0.088-0.352-0.152-0.352-0.053 0.283-0.093 0.728-0.12 1.335h0.040c-0.048 0.064-0.088 0.377-0.121 0.936-0.026 0-0.039 0.040-0.039 0.12 0 0.053 0.026 0.144 0.080 0.272-0.053 0.864-0.093 1.701-0.119 2.512 0.026 0.042 0.039 0.122 0.039 0.24l-0.080 0.152c0.027 0.341 0.040 0.615 0.040 0.823v0.24c-0.080 0.293-0.171 1.378-0.272 3.255v0.503c-0.107 0.47-0.381 0.864-0.824 1.184-0.101 0-0.272 0.037-0.512 0.112zM77.168 29.089h-1.215c-0.181 0-0.56-0.090-1.136-0.272-0.034 0.021-0.075 0.035-0.118 0.040l-0.001 0c-1.237-0.64-2.074-1.123-2.511-1.447-0.192 0-0.551-0.253-1.079-0.76-0.523-0.501-0.87-1.021-1.040-1.559-0.512-0.677-0.823-1.37-0.935-2.079-0.186-0.294-0.381-1.066-0.583-2.32-0.079-0.443-0.126-0.955-0.128-1.477v-0.002l-0.040-0.080c0.026-0.060 0.041-0.131 0.041-0.204 0-0.012-0-0.025-0.001-0.037l0 0.002c0-0.075-0.014-0.112-0.040-0.112l0.040-0.080c0.026-1.024 0.039-1.801 0.039-2.335 0-0.070 0.014-0.128 0.040-0.176-0.022-0.034-0.037-0.075-0.040-0.119l-0-0.001 0.040-0.352h-0.040l0.040-0.080c0.102-2.916 0.232-4.47 0.392-4.661 0.016-0.757 0.304-2.117 0.863-4.078l0.512-0.944c0.507-0.959 1.344-1.836 2.511-2.63 0.336-0.074 0.504-0.138 0.504-0.192l-0.072-0.039h-0.039c-0.027 0-0.040 0.013-0.040 0.039-0.034-0.020-0.075-0.034-0.118-0.039l-0.001-0v-0.121h0.039c0.677 0.075 1.253 0.206 1.728 0.392 0.213 0.106 0.551 0.187 1.015 0.24 0.064 0.080 0.157 0.12 0.28 0.12 0.102 0 0.152-0.026 0.152-0.080 0.31 0.181 0.584 0.272 0.824 0.272 0.032 0.070 0.229 0.146 0.592 0.232h0.272c0.048 0 0.323 0.197 0.823 0.592 0.219 0 0.454 0.171 0.704 0.512 0.496 0.314 1.008 0.823 1.536 1.527 0.308 0.299 0.57 0.835 0.783 1.607 0.102 0.49 0.152 0.818 0.152 0.984 0.027 0 0.040 0.013 0.040 0.039 0 0.043-0.026 0.121-0.080 0.232 0.026 0.181 0.039 0.325 0.039 0.432-0.048 0.165-0.071 0.27-0.071 0.312 0.017 0.035 0.028 0.076 0.032 0.119l0 0.001c-0.052 0.116-0.103 0.26-0.146 0.407l-0.006 0.025 0.039 0.152c-0.042 0.080-0.082 0.344-0.119 0.792-0.155 0.192-0.272 0.544-0.353 1.055-0.085 0-0.176 0.235-0.272 0.704-0.149 0.224-0.269 0.355-0.36 0.391-0.154 0.15-0.284 0.293-0.391 0.432-0.085 0-0.189 0.144-0.312 0.432-0.464 0.362-0.698 0.611-0.704 0.743-0.037 0-0.259 0.157-0.664 0.472-0.096 0-0.32 0.104-0.671 0.312-0.086 0-0.36 0.067-0.824 0.2-0.008 0-0.017 0-0.026 0-0.116 0-0.228-0.015-0.335-0.043l0.009 0.002c-0.245 0.027-0.512 0.040-0.799 0.040-0.885 0-1.469-0.091-1.752-0.272l-0.152-0.040-0.391 0.080v1.287c0 0.027-0.014 0.040-0.040 0.040 0 0.027 0.013 0.040 0.040 0.040l-0.040 0.28v0.312c0 0.058 0.013 0.11 0.040 0.152-0.021 0.034-0.035 0.075-0.040 0.118l-0 0.001c0 0.304 0.013 0.552 0.040 0.744-0.027 0.576-0.040 1.111-0.040 1.607 0 1.492 0.104 2.238 0.311 2.238 0.289 1.141 0.432 1.834 0.432 2.079 0.075 0 0.232 0.274 0.472 0.824 0.065 0.046 0.145 0.075 0.231 0.080l0.001 0c0.293 0 0.567-0.107 0.823-0.32l0.080 0.039c0.341-0.176 0.512-0.514 0.512-1.015 0.080 0 0.157-0.238 0.231-0.712 0.24-0.176 0.451-0.293 0.632-0.351 0.058-0.048 0.267-0.099 0.624-0.153 1.296 0 2.133 0.654 2.512 1.959 0.085 0 0.188 0.32 0.311 0.96-0.074 0.405-0.124 0.607-0.151 0.607 0 0.293-0.238 0.634-0.712 1.024-0.357 0.165-0.579 0.309-0.664 0.432-0.601 0.268-1.302 0.423-2.040 0.423-0.014 0-0.028-0-0.042-0h0.002zM73.834 12.977c0.198 0 0.616-0.366 1.255-1.095 0-0.053 0.157-0.277 0.472-0.672 0-0.144 0.118-0.366 0.352-0.664 0.054-0.272 0.131-0.519 0.232-0.743 0.144-0.16 0.274-0.762 0.391-1.807 0-0.080 0.014-0.171 0.040-0.272-0.025-0.092-0.039-0.198-0.039-0.308 0-0.001 0-0.002 0-0.003v0l0.039-0.080-0.112-0.080h-0.080c-0.298 0-0.717 0.459-1.255 1.375-0.507 0.592-0.821 1.219-0.944 1.88-0.154 0.517-0.231 1.106-0.231 1.766-0.054 0-0.093 0.235-0.121 0.704zM91.218 29.178c-0.289 0-0.891-0.078-1.808-0.232-0.71-0.208-1.493-0.562-2.351-1.063-0.662-0.528-1.48-1.145-2.312-1.743l-0.199-0.136c-0.698-0.72-1.064-1.165-1.096-1.336-0.442-0.501-0.73-1.756-0.863-3.767 0-0.495 0.026-1.54 0.080-3.133h0.032l-0.032-0.080v-0.704c0-0.001 0-0.003 0-0.005 0-0.057-0.015-0.11-0.040-0.156l0.001 0.002c0.042-0.166 0.080-0.451 0.112-0.856 0-0.027-0.013-0.040-0.040-0.040l0.2-1.687c-0.005-0.045-0.020-0.085-0.041-0.121l0.001 0.001c0.107-0.528 0.21-1.703 0.312-3.526h-0.039c0.074-0.219 0.128-0.533 0.16-0.944 0-0.027-0.014-0.040-0.040-0.040 0.261-1.605 0.472-3.238 0.631-4.901-0.053 0-0.133-0.249-0.24-0.744 0.027-0.16 0.067-0.24 0.121-0.24h0.152l0.199 0.121 0.16-0.040c0.219 0 0.558 0.104 1.015 0.312 0-0.032 0.105-0.136 0.313-0.312h0.16c0 0.058 0.117 0.112 0.352 0.16 0.021 0.064 0.192 0.128 0.512 0.192l0.231-0.040c0.421 0.213 0.631 0.346 0.631 0.4h0.041l0.272-0.039c0.144 0.027 0.248 0.039 0.312 0.039 0.025-0.045 0.040-0.099 0.040-0.157 0-0.001 0-0.002-0-0.004v0h0.039l0.201 0.040c0.005-0.053 0.028-0.080 0.071-0.080 0.064 0 0.261 0.090 0.592 0.272 0.352 0 0.704 0.131 1.055 0.391l0.080-0.039c0.538 0.33 1.127 0.735 1.767 1.216 0.357 0.175 0.97 0.7 1.839 1.574 0 0.069 0.171 0.224 0.512 0.464 0 0.059 0.184 0.296 0.551 0.712l0.504 0.784c0.186 0 0.451 0.455 0.792 1.367 0.154 0.267 0.232 0.477 0.232 0.632v0.16c0.123 0 0.199 0.234 0.231 0.704 0 0.031 0.107 0.347 0.32 0.943 0 0.224 0.064 0.432 0.192 0.624l0.352 1.879c0 0.027-0.014 0.040-0.040 0.040 0.133 1.002 0.24 1.644 0.32 1.926l-0.040 0.072c0.102 0.906 0.152 1.586 0.152 2.039v0.903c-0.048 0.821-0.112 1.349-0.192 1.584 0 0.134 0.027 0.248 0.080 0.344-0.314 1.098-0.538 1.751-0.672 1.959-0.192 0.245-0.543 0.781-1.055 1.606-0.282 0.347-0.701 0.712-1.255 1.096-0.4 0.336-0.765 0.57-1.095 0.704-0.24 0.25-0.829 0.511-1.767 0.783-0.154 0-0.389 0.040-0.704 0.121zM89.179 26.395c0.17-0.053 0.287-0.080 0.351-0.080v0.039c0.949-0.496 1.759-1.396 2.431-2.703 0.208-0.746 0.312-1.426 0.312-2.039 0.080-0.586 0.12-1.052 0.12-1.399 0.001-0.009 0.001-0.019 0.001-0.029 0-0.065-0.015-0.127-0.042-0.181l0.001 0.002c0-0.026 0.014-0.039 0.040-0.039-0.016-0.341-0.078-1.016-0.184-2.023s-0.176-1.511-0.208-1.511l0.040-0.072v-0.039c0-0.309-0.067-0.808-0.2-1.496 0.025-0.041 0.040-0.090 0.040-0.143 0-0.003-0-0.006-0-0.009v0l-0.231-1.063c-0.096-0.219-0.217-0.611-0.36-1.176l-0.072-0.039v0.080h-0.080c-0.112-0.091-0.256-0.483-0.432-1.176h0.080l0.152 0.121v-0.040c-0.479-1.306-1.029-2.3-1.647-2.982-0.075 0-0.179-0.078-0.312-0.232h-0.080l-0.040 0.312h0.040c-0.022 0.191-0.061 0.364-0.117 0.53l0.005-0.018c0.181 0.266 0.272 0.565 0.272 0.896v0.28c-0.070 0.293-0.136 0.762-0.2 1.407h0.040c-0.053 0.251-0.104 0.381-0.152 0.391l0.080 0.672c-0.213 1.077-0.45 3.246-0.711 6.509 0 0.138 0.014 0.256 0.040 0.352-0.027 0.186-0.053 0.604-0.080 1.255 0 0.026 0.014 0.039 0.040 0.039l-0.040 0.192v1.607c0 2.064 0.368 3.332 1.104 3.806zM112.048 30.369c-0.821-0.080-1.464-0.238-1.927-0.472 0-0.086-0.157-0.153-0.472-0.2 0-0.085-0.224-0.229-0.672-0.432-0.154-0.208-0.231-0.402-0.231-0.584 0-0.096 0.026-0.32 0.080-0.671-0.053 0-0.080-0.040-0.080-0.12 0-0.485 0.013-0.878 0.039-1.176-0.024-0.48-0.038-1.044-0.039-1.612v-0.003l0.432-8.059-0.040-0.192 0.080-0.672-0.040-0.311c0.064-1.152 0.117-1.781 0.16-1.888 0-0.027-0.014-0.040-0.040-0.040 0.026-0.298 0.053-0.469 0.080-0.512-0.027-0.106-0.067-0.538-0.121-1.295 0-0.027 0.014-0.040 0.040-0.040-0.006-0.044-0.020-0.085-0.041-0.12l0.001 0.001c0-1.568 0.157-3.205 0.472-4.91 0.054-0.726 0.080-1.157 0.080-1.296v-0.121c-0.186-0.197-0.28-0.314-0.28-0.351h0.080v-0.080c-0.106-0.101-0.17-0.285-0.192-0.551 0-0.539 0.168-1.115 0.504-1.728 0-0.17 0.341-0.471 1.024-0.903 0.661-0.24 1.527-0.359 2.598-0.359 0.288 0.026 0.666 0.040 1.136 0.040 0.165 0 0.362-0.014 0.592-0.040 0.725 0 1.773 0.238 3.142 0.711 0.224 0 0.487 0.104 0.792 0.312 0.186 0.011 0.368 0.128 0.543 0.352 0.128 0.021 0.43 0.299 0.904 0.832 0.373 0.373 0.688 0.805 0.944 1.295 0.085 0 0.229 0.261 0.432 0.784 0.213 0.752 0.32 1.336 0.32 1.752-0.058 1.481-0.176 2.223-0.352 2.223-0.107 0.437-0.2 0.909-0.28 1.415-0.16 0.064-0.395 0.496-0.704 1.296-0.176 0.288-0.333 0.432-0.472 0.432-0.101 0.139-0.258 0.269-0.472 0.391-0.042 0-0.266 0.157-0.671 0.472-0.704 0.523-1.189 0.784-1.456 0.784-0.304 0.181-1.010 0.315-2.119 0.4-0.304 0.101-0.578 0.152-0.823 0.152-0.118 0-0.288-0.014-0.512-0.040-0.186 0.022-0.28 0.048-0.28 0.080l-0.080-0.040c-0.042 0-0.080 0.093-0.112 0.28 0 0.048 0.013 0.072 0.040 0.072 0 0.202-0.067 1.146-0.2 2.831 0 0.026 0.014 0.040 0.040 0.040l-0.040 0.471v0.281c0 0.602-0.067 1.637-0.2 3.102-0.026 0-0.039 0.013-0.039 0.040s0.013 0.066 0.039 0.119l-0.039 0.393 0.039 0.391c-0.036 0.528-0.089 1-0.164 1.466l0.012-0.091h0.040c-0.091 0-0.171 0.498-0.24 1.496v0.671c0 0.176 0.013 0.331 0.039 0.464-0.026 0.139-0.039 0.302-0.039 0.488 0 0.48-0.014 1.066-0.040 1.759-0.186 0.346-0.37 0.53-0.552 0.551-0.021 0.043-0.216 0.121-0.583 0.232 0 0.027-0.026 0.040-0.080 0.040zM114.446 11.97c0.208-0.101 0.312-0.283 0.312-0.544 0.192 0 0.507-0.251 0.944-0.752 0.16-0.091 0.331-0.391 0.512-0.903 0.213 0 0.397-0.525 0.551-1.575 0.054 0 0.093-0.195 0.121-0.583 0.069-0.048 0.12-0.456 0.152-1.223v-0.704c-0.235-1.173-0.549-1.882-0.944-2.127-0.208 0-0.43 0.026-0.664 0.080-0.083-0.023-0.179-0.037-0.279-0.039l-0.001-0c-0.656 0.085-0.984 0.4-0.984 0.943 0 0.139-0.013 0.256-0.040 0.352 0.054 0.25 0.080 0.408 0.080 0.472l-0.12 2.359c0.048 0.059 0.088 0.27 0.12 0.632 0.026 0 0.053 0.091 0.080 0.272l-0.039 0.080 0.039 0.472c0 0.32-0.091 1.159-0.272 2.519l0.040 0.272c0.007 0 0.015 0.001 0.023 0.001 0.062 0 0.12-0.015 0.171-0.042l-0.002 0.001 0.199 0.040zM127.192 28.306c-0.202-0.082-0.439-0.149-0.684-0.189l-0.020-0.003c-0.034 0.020-0.075 0.034-0.118 0.039l-0.001 0c-0.122-0.093-0.266-0.162-0.424-0.198l-0.007-0.001c-0.246-0.31-0.597-0.622-1.056-0.936-0.191-0.213-0.409-0.396-0.651-0.544l-0.013-0.007h-0.080l-0.080 0.039c0-0.048-0.157-0.192-0.472-0.432-0.341-0.325-0.511-1.084-0.511-2.278h-0.040c0-0.022 0.013-0.032 0.040-0.032l-0.040-0.28v-0.944c0-0.007 0.001-0.015 0.001-0.023 0-0.062-0.015-0.12-0.042-0.171l0.001 0.002c0.026-0.101 0.040-0.192 0.040-0.272 0-2.512 0.053-3.767 0.16-3.767 0-0.026-0.014-0.039-0.040-0.039l0.040-0.272v-0.391l0.080-1.688v-0.631c0-0.459-0.013-1.035-0.039-1.728l0.039-0.071-0.039-0.24v-0.080c0-0.091 0.013-0.208 0.039-0.352 0-0.027-0.013-0.040-0.039-0.040l0.039-0.192c0.054-1.407 0.080-2.35 0.080-2.83 0-0.16-0.014-0.261-0.040-0.304l0.040-0.080c-0.025-0.293-0.039-0.636-0.040-0.982v-0.001c0-0.165 0.014-0.269 0.040-0.312-0.020-0.034-0.035-0.075-0.040-0.118l-0-0.002 0.040-0.080c0-0.027-0.014-0.039-0.040-0.039l0.040-0.192c0.154-3.38 0.298-5.458 0.432-6.237l-0.28-0.472c0.043-0.101 0.082-0.152 0.12-0.152h0.16l0.152 0.112 0.432-0.032c0.235 0.074 0.392 0.112 0.472 0.112h0.16l0.112-0.080c0.132 0.006 0.253 0.050 0.354 0.12l-0.002-0.001h0.12l0.312-0.080c0.080 0.091 0.237 0.184 0.472 0.28l0.080-0.039c0.128 0.042 0.299 0.146 0.512 0.311 0.144 0 0.314 0.158 0.512 0.473 0.187 0.054 0.338 0.181 0.422 0.347l0.002 0.004c0.288 0.229 0.432 0.594 0.432 1.096h0.040c-0.042 0.394-0.093 0.592-0.152 0.592 0.053 0.224 0.080 0.368 0.080 0.432-0.021 0.155-0.048 0.232-0.080 0.232 0.053 0.218 0.080 0.453 0.080 0.704 0 0.026-0.013 0.039-0.039 0.039l0.039 0.2v0.551l-0.039 0.232 0.112 0.551-0.040 0.232 0.040 0.272-0.040 0.472 0.040 0.392h-0.040l0.040 0.080c0 0.139 0.014 0.36 0.040 0.664-0.026 0.389-0.040 0.653-0.040 0.792 0.006 0.213 0.046 0.512 0.12 0.896v0.751l0.080 1.248v0.24c0 0.096-0.014 0.213-0.040 0.352l0.080 0.311-0.080 0.552c0.046 0.065 0.075 0.145 0.080 0.231l0 0.001v0.24l-0.121 0.472 0.080 0.824c-0.020 0.091-0.035 0.198-0.040 0.307l-0 0.005 0.040 0.664c-0.053 0.16-0.093 0.24-0.12 0.24 0.026 0.016 0.053 0.25 0.080 0.704l-0.080 0.040 0.039 0.080v0.232l-0.039 0.231 0.039 0.080-0.039 0.24 0.039 0.080c0 0.021-0.013 0.032-0.039 0.032 0.026 0.565 0.053 0.969 0.080 1.216-0.155 0.895-0.232 1.719-0.232 2.47 0 0.314 0.131 0.471 0.392 0.471 0.565 0.054 1.008 0.146 1.328 0.28 0.059 0.038 0.32 0.115 0.784 0.232 0.97 0.283 1.468 0.466 1.495 0.552 0.171 0 0.302 0.405 0.392 1.215v0.272c-0.107 0.363-0.21 0.57-0.312 0.624-0.080 0-0.12 0.027-0.12 0.080l0.039 0.32-0.039 0.152c0.026 0.106 0.039 0.198 0.039 0.272-0.365 0.389-0.853 0.66-1.401 0.75l-0.014 0.002c-0.725 0.208-1.652 0.352-2.782 0.432v-0.040l-0.080 0.040h-0.039c-0.523 0.005-0.784 0.029-0.784 0.071z"></path>
<path fill="#fff" style="fill: var(--color1, #fff)" d="M138.474 30.192c-0.049-0.026-0.107-0.041-0.169-0.041-0.008 0-0.016 0-0.024 0.001l0.001-0v0.040l-0.080-0.040h-0.16c-1.098-0.202-1.647-0.373-1.647-0.512-0.096 0-0.422-0.261-0.976-0.783-0.048 0-0.402-0.352-1.063-1.056 0-0.17-0.288-0.458-0.864-0.863 0-0.085-0.195-0.283-0.583-0.592 0-0.016-0.144-0.198-0.432-0.544-0.315-0.576-0.472-0.994-0.472-1.255l0.040-0.2c-0.023-0.105-0.037-0.226-0.040-0.35l-0-0.002c0.054 0 0.104-0.522 0.153-1.567 0.287-1.705 0.642-3.065 1.063-4.078 0.085-0.41 0.49-1.104 1.215-2.079 0.8-0.944 2.263-1.415 4.389-1.415h0.984c0.053 0 0.355 0.054 0.903 0.16h0.432l0.032-0.199v-0.352c0-0.027-0.011-0.040-0.032-0.040l0.032-0.072c-0.046-0.090-0.072-0.197-0.072-0.31 0-0.004 0-0.007 0-0.011v0.001-0.543c0.101-0.245 0.152-0.587 0.152-1.024h-0.040l0.040-0.080v-0.040c-0.064-0.072-0.106-0.167-0.112-0.27l-0-0.001c0-0.117 0.050-0.302 0.152-0.552l-0.040-0.071c0.021-0.094 0.035-0.204 0.040-0.316l0-0.004c-0.080-0.128-0.12-0.232-0.12-0.312v-0.232l0.039-0.080c-0.101-0.037-0.152-0.078-0.152-0.121v-0.935c0-0.117 0.026-0.224 0.080-0.32l-0.080-0.472c0.026-0.347 0.040-0.631 0.040-0.855l-0.040-0.552c0.023-0.081 0.037-0.174 0.040-0.27l0-0.002c-0.064-0.341-0.131-0.512-0.2-0.512h-0.080c-0.639 0.177-1.184 0.517-1.605 0.973l-0.002 0.002c-0.128 0.069-0.336 0.267-0.624 0.592-0.256 0.219-0.584 0.664-0.984 1.335-0.422 0.523-0.736 0.784-0.944 0.784 0 0.069-0.155 0.146-0.464 0.232h-0.32c-0.037 0-0.205-0.051-0.504-0.153-0.034 0.021-0.075 0.035-0.118 0.040l-0.001 0c-0.128-0.16-0.376-0.357-0.743-0.592 0-0.149-0.157-0.306-0.472-0.472-0.080-0.16-0.121-0.264-0.121-0.312l0.080-0.16c-0.235-0.101-0.352-0.219-0.352-0.352-0.171 0-0.274-0.117-0.312-0.352-0.064 0-0.184-0.131-0.36-0.391-0.128 0-0.191-0.067-0.191-0.2 0-0.208-0.104-0.312-0.313-0.312 0-0.080 0.091-0.25 0.272-0.512 0-0.208 0.144-0.375 0.432-0.503 0.021-0.080 0.219-0.318 0.592-0.712 0.411-0.421 0.685-0.72 0.824-0.896 0.064 0 0.272-0.156 0.624-0.471 0.064 0 0.299-0.131 0.704-0.392 0.112 0 0.295-0.067 0.551-0.2v0.040c0.501-0.128 0.888-0.192 1.159-0.192 0.405 0 0.776 0.038 1.112 0.112h0.28c0.757 0 1.33 0.117 1.719 0.351 1.28 0.293 2.522 1.093 3.727 2.399 1.098 1.344 1.647 2.348 1.647 3.014 0.123 0 0.216 0.509 0.28 1.527l-0.039 0.281 0.039 0.192-0.039 0.199c0 0.027 0.013 0.067 0.039 0.12-0.053 0.4-0.093 1.027-0.12 1.88l0.040 0.080c-0.048 0-0.088 0.743-0.12 2.231l-0.040 0.080c0.020 0.034 0.035 0.074 0.040 0.117l0 0.002-0.080 1.608 0.040 0.192c-0.128 1.86-0.245 2.944-0.352 3.254-0.070 0-0.133 0.327-0.192 0.984-0.316 1.518-0.696 2.819-1.166 4.077l0.062-0.191c-0.565 1.024-0.97 1.69-1.215 1.999-0.123 0.39-0.632 0.872-1.527 1.447-0.118 0.192-0.653 0.44-1.607 0.744-1.013 0.133-1.575 0.199-1.687 0.199zM136.987 26.307c0.848-0.24 1.722-1.221 2.622-2.942 0.544-1.045 0.976-2.86 1.296-5.445l-0.12-0.080c-0.81 0.122-1.215 0.24-1.215 0.352-0.070 0-0.277 0.171-0.624 0.512-0.070 0.026-0.16 0.184-0.272 0.472-0.368 0.362-0.682 1.042-0.944 2.039l-0.592 2.271c-0.176 0-0.293 0.706-0.352 2.118 0 0.469 0.067 0.704 0.2 0.704zM151.347 29.529c-0.079-0.040-0.172-0.066-0.27-0.071l-0.002-0c-0.091 0.016-0.198 0.028-0.307 0.032l-0.005 0c-0.006-0.054-0.15-0.131-0.432-0.232 0-0.058-0.12-0.125-0.359-0.2v-0.071h-0.072c0 0.074-0.026 0.112-0.080 0.112-0.24-0.154-0.416-0.231-0.528-0.231-0.042 0-0.064 0.013-0.064 0.039-0.021 0-0.242-0.144-0.664-0.432l-0.199-0.472 0.12-0.823-0.040-0.080 0.16-0.864v-0.272c0-0.027 0.014-0.040 0.040-0.040 0-0.027-0.014-0.040-0.040-0.040l0.040-0.192v-0.551l-0.040-0.192-0.080 0.032h-0.080c-0.128-0.997-0.192-1.78-0.192-2.351 0.032 0 0.083-0.064 0.153-0.192l-0.080-0.12v-0.040c0-0.026 0.014-0.040 0.040-0.040-0.048-0.117-0.072-0.287-0.072-0.512h0.032c-0.021-0.048-0.059-0.242-0.112-0.583 0.026-0.16 0.053-0.24 0.080-0.24l-0.040-0.392v-1.879c0-0.096 0.014-0.213 0.040-0.352-0.048-0.072-0.078-0.16-0.080-0.256v-0c0-0.074 0.013-0.133 0.039-0.176-0.053-0.096-0.106-0.266-0.159-0.512l0.039-0.080c-0.053-0.198-0.093-0.523-0.12-0.976 0-0.027 0.014-0.040 0.040-0.040l-0.040-0.391v-0.2l-0.080-2.15c0-0.096 0.013-0.217 0.039-0.36l-0.039-0.232c0.053-0.816 0.080-1.351 0.080-1.607h0.040l-0.040-0.080c0-0.096 0.014-0.213 0.040-0.352-0.128-1.364-0.192-2.202-0.192-2.511 0.101-0.053 0.152-0.117 0.152-0.192-0.026-0.037-0.040-0.103-0.040-0.199 0.080 0 0.121-0.040 0.121-0.121-0.128-0.592-0.192-1.285-0.192-2.078v-0.896c0-0.154-0.014-0.366-0.040-0.631l0.040-0.080c-0.025-0.187-0.040-0.403-0.040-0.623v-0.001c0-0.683 0.131-1.024 0.391-1.024l0.153-0.072 0.080 0.032 0.24-0.032c0.003-0 0.006-0 0.009-0 0.052 0 0.102 0.012 0.146 0.033l-0.002-0.001c0.411-0.123 0.763-0.266 1.098-0.44l-0.035 0.016c0-0.048 0.117-0.088 0.352-0.12 0-0.027 0.013-0.040 0.039-0.040l0.152 0.040 0.24-0.121h0.040c0.048 0.011 0.071 0.038 0.071 0.080 0.23-0.021 0.373-0.061 0.432-0.12h0.080c0.139 0.096 0.309 0.189 0.512 0.28 0 0.043 0.090 0.106 0.272 0.192 0.075 0.149 0.232 0.293 0.472 0.432 0.426 0.464 0.805 1.066 1.136 1.808 0.784 1.957 1.296 3.339 1.535 4.149l0.392 1.216 0.976 3.374c0 0.182 0.080 0.416 0.24 0.704 0 0.213 0.037 0.32 0.112 0.32l0.12-0.592h-0.039l0.039-0.080v-0.112c0-0.091-0.039-0.184-0.12-0.28v-0.192l0.12-0.16v-0.040c0-0.053-0.026-0.080-0.080-0.080 0-0.075 0.014-0.165 0.040-0.272-0.023-0.286-0.037-0.626-0.040-0.969l-0-0.007c0-0.138 0.014-0.362 0.040-0.671-0.008-0.132-0.052-0.253-0.121-0.354l0.002 0.002v-0.432h0.080l-0.040-0.272v-0.080c-0.074 0-0.112-0.027-0.112-0.080s0.037-0.080 0.112-0.080c-0.024-0.438-0.039-0.952-0.039-1.47v-0.002c0-0.218 0.013-0.327 0.039-0.327l-0.039-0.080v-0.232l-0.072-1.375v-0.392c0-0.112 0.011-0.256 0.032-0.432-0.020-0.046-0.032-0.099-0.032-0.156 0-0.002 0-0.003 0-0.005v0c0.059 0 0.109 0.157 0.152 0.472h0.040c-0.026-0.268-0.041-0.58-0.041-0.896 0-0.028 0-0.056 0-0.084l-0 0.004h-0.040c0 0.261-0.037 0.392-0.112 0.392l-0.040-0.392 0.040-0.080 0.072 0.040h0.039v-0.121c-0.128 0-0.192-0.067-0.192-0.199v-0.352l0.080-0.112-0.080-0.119v-0.784c0-0.16 0.157-0.514 0.472-1.063 0-0.144 0.208-0.455 0.624-0.935 0.069-0.171 0.135-0.264 0.199-0.28h0.040l0.192 0.16c0.001 0 0.002 0 0.003 0 0.058 0 0.112-0.015 0.158-0.041l-0.002 0.001c0.192 0.133 0.322 0.2 0.391 0.2v0.272h0.040c0.112-0.080 0.203-0.12 0.272-0.12 0.022 0.106 0.048 0.16 0.080 0.16l0.192-0.040c0 0.128 0.237 0.192 0.711 0.192 0-0.027 0.011-0.040 0.032-0.040l0.28 0.2 0.192-0.12h0.040c0.256 0.234 0.571 0.457 0.944 0.671 0 0.085 0.090 0.149 0.272 0.192l0.040 0.592h-0.040l0.040 0.080v0.935c0 0.001 0 0.002 0 0.003 0 0.058-0.015 0.112-0.041 0.158l0.001-0.002c0.026 0.042 0.040 0.178 0.040 0.408 0 0.261-0.014 0.413-0.040 0.455l0.040 0.232v0.512c0 0.085 0.013 0.149 0.040 0.192l-0.040 0.24c0 0.341 0.026 0.629 0.080 0.863 0 0.027-0.013 0.040-0.039 0.040l0.039 0.392v1.255l-0.039 0.231c0.026 0.048 0.039 0.101 0.039 0.16l-0.039 0.072 0.080 0.592c-0.026 0.14-0.041 0.301-0.041 0.466 0 0.016 0 0.032 0 0.048l-0-0.002c0 0.053 0.014 0.080 0.040 0.080-0.107 0.747-0.16 1.202-0.16 1.368l0.040 0.080c-0.020 0.034-0.035 0.075-0.040 0.118l-0 0.002 0.040 0.153-0.040 0.080 0.12 0.823c-0.117 0-0.184 0.694-0.199 2.080v0.983c-0.048 0.267-0.139 1.338-0.272 3.215-0.123 0.117-0.213 0.757-0.272 1.92-0.117 0-0.262 1.097-0.432 3.293-0.101 0.283-0.219 0.922-0.352 1.92 0.026 0.137 0.040 0.269 0.040 0.391-0.043 0-0.096 0.053-0.16 0.16v0.272c-0.090 0-0.157 0.093-0.2 0.28-0.112 0-0.203 0.064-0.272 0.192h-0.232c0 0.107-0.026 0.16-0.080 0.16h-0.312l-0.121-0.080-0.231 0.121-0.2-0.040c-0.034 0.021-0.075 0.035-0.118 0.040l-0.001 0-0.152-0.2-0.2 0.040c-0.219-0.12-0.403-0.279-0.548-0.468l-0.003-0.004c-0.075 0-0.256-0.078-0.544-0.232-0.225-0.065-0.422-0.158-0.599-0.276l0.008 0.005c-0.186 0-0.344-0.21-0.472-0.632-0.245-0.384-0.453-0.906-0.624-1.567-0.123-0.155-0.293-0.613-0.512-1.376-0.208-0.373-0.743-1.98-1.607-4.821-0.037-0.235-0.088-0.352-0.152-0.352-0.053 0.283-0.093 0.728-0.12 1.335h0.039c-0.048 0.064-0.088 0.377-0.12 0.936-0.026 0-0.039 0.040-0.039 0.12 0 0.053 0.026 0.144 0.080 0.272-0.053 0.864-0.093 1.701-0.12 2.512 0.026 0.042 0.040 0.122 0.040 0.24l-0.080 0.152c0.026 0.341 0.040 0.615 0.040 0.823v0.24c-0.080 0.293-0.171 1.378-0.272 3.255v0.503c-0.106 0.47-0.38 0.864-0.823 1.184-0.101 0-0.272 0.037-0.512 0.112zM172.208 29.089h-1.215c-0.181 0-0.56-0.090-1.136-0.272-0.034 0.021-0.075 0.035-0.118 0.040l-0.001 0c-1.237-0.64-2.074-1.123-2.511-1.447-0.192 0-0.552-0.253-1.080-0.76-0.522-0.501-0.869-1.021-1.040-1.559-0.512-0.677-0.824-1.37-0.935-2.079-0.186-0.294-0.381-1.066-0.584-2.32-0.079-0.443-0.126-0.955-0.128-1.476v-0.002l-0.039-0.080c0.026-0.060 0.041-0.13 0.041-0.203 0-0.013-0-0.026-0.001-0.038l0 0.002c0-0.075-0.013-0.112-0.039-0.112l0.039-0.080c0.027-1.024 0.040-1.801 0.040-2.335 0-0.070 0.014-0.128 0.040-0.176-0.022-0.034-0.036-0.075-0.040-0.119l-0-0.001 0.040-0.352h-0.040l0.040-0.080c0.101-2.916 0.232-4.47 0.391-4.661 0.016-0.757 0.304-2.117 0.864-4.078l0.512-0.944c0.506-0.959 1.343-1.836 2.511-2.63 0.336-0.074 0.504-0.138 0.504-0.192l-0.072-0.039h-0.040c-0.026 0-0.039 0.013-0.039 0.039-0.035-0.020-0.076-0.034-0.119-0.039l-0.001-0v-0.121h0.040c0.678 0.075 1.253 0.206 1.727 0.392 0.213 0.106 0.552 0.187 1.016 0.24 0.064 0.080 0.157 0.12 0.28 0.12 0.101 0 0.152-0.026 0.152-0.080 0.309 0.181 0.584 0.272 0.824 0.272 0.032 0.070 0.23 0.146 0.592 0.232h0.272c0.048 0 0.323 0.197 0.824 0.592 0.219 0 0.453 0.171 0.704 0.512 0.496 0.314 1.008 0.823 1.535 1.527 0.309 0.299 0.571 0.835 0.784 1.607 0.101 0.49 0.152 0.818 0.152 0.984 0.026 0 0.040 0.013 0.040 0.039-0.013 0.087-0.042 0.165-0.082 0.235l0.002-0.003c0.027 0.181 0.040 0.325 0.040 0.432-0.048 0.165-0.071 0.27-0.071 0.312 0.016 0.035 0.027 0.076 0.031 0.119l0 0.001c-0.051 0.115-0.103 0.258-0.145 0.406l-0.006 0.026 0.040 0.152c-0.043 0.080-0.082 0.344-0.12 0.792-0.155 0.192-0.272 0.544-0.352 1.055-0.085 0-0.176 0.235-0.272 0.704-0.15 0.224-0.27 0.355-0.36 0.391-0.155 0.15-0.285 0.293-0.391 0.432-0.086 0-0.189 0.144-0.312 0.432-0.464 0.362-0.698 0.611-0.704 0.743-0.037 0-0.259 0.157-0.664 0.472-0.096 0-0.32 0.104-0.672 0.312-0.085 0-0.359 0.067-0.823 0.2-0.139 0-0.256-0.014-0.352-0.040-0.232 0.026-0.501 0.040-0.773 0.040-0.009 0-0.019-0-0.028-0h0.001c-0.885 0-1.468-0.091-1.751-0.272l-0.152-0.040-0.392 0.080v1.287c0 0.027-0.013 0.040-0.039 0.040 0 0.027 0.013 0.040 0.039 0.040l-0.039 0.28v0.312c0 0.058 0.013 0.11 0.039 0.152-0.020 0.034-0.034 0.075-0.039 0.118l-0 0.001c0 0.304 0.013 0.552 0.039 0.744-0.026 0.576-0.039 1.111-0.039 1.607 0 1.492 0.103 2.238 0.312 2.238 0.288 1.141 0.432 1.834 0.432 2.079 0.075 0 0.232 0.274 0.472 0.824 0.065 0.046 0.145 0.075 0.231 0.080l0.001 0c0.293 0 0.567-0.107 0.823-0.32l0.080 0.039c0.341-0.176 0.511-0.514 0.511-1.015 0.080 0 0.157-0.238 0.232-0.712 0.24-0.176 0.451-0.293 0.632-0.351 0.059-0.048 0.267-0.099 0.624-0.153 1.296 0 2.132 0.654 2.511 1.959 0.086 0 0.189 0.32 0.312 0.96-0.074 0.405-0.125 0.607-0.152 0.607 0 0.293-0.237 0.634-0.711 1.024-0.357 0.165-0.579 0.309-0.664 0.432-0.601 0.268-1.302 0.423-2.040 0.423-0.014 0-0.028-0-0.041-0h0.002zM168.874 12.977c0.197 0 0.616-0.366 1.255-1.095 0-0.053 0.157-0.277 0.472-0.672 0-0.144 0.118-0.366 0.352-0.664 0.054-0.281 0.134-0.53 0.241-0.764l-0.009 0.021c0.144-0.16 0.274-0.762 0.391-1.807 0-0.080 0.014-0.171 0.040-0.272-0.025-0.093-0.040-0.2-0.040-0.311v-0l0.040-0.080-0.112-0.080h-0.080c-0.298 0-0.717 0.459-1.255 1.375-0.506 0.592-0.821 1.219-0.944 1.88-0.155 0.517-0.232 1.106-0.232 1.766-0.053 0-0.093 0.235-0.12 0.704zM187.353 30.345c-1.050-0.080-1.716-0.171-1.999-0.272l-0.16 0.080c-0.678-0.341-1.042-0.512-1.095-0.512v0.041c-0.144 0-0.669-0.302-1.575-0.904-0.518-0.314-1.053-0.863-1.607-1.647-0.571-0.832-0.856-2.112-0.856-3.838 0.022-0.102 0.032-0.219 0.032-0.352h-0.032l0.032-0.080c0-0.464 0.026-1.17 0.080-2.119 0-0.027-0.014-0.040-0.040-0.040 0.006-0.044 0.020-0.085 0.041-0.12l-0.001 0.001c0.026-0.811 0.039-1.554 0.039-2.231 0-0.304 0.014-0.528 0.040-0.673-0.053-0.538-0.117-1.687-0.192-3.446h0.032l-0.032-0.080v-0.784l-0.080-1.648c0-0.080 0.013-0.171 0.040-0.272-0.025-0.118-0.040-0.253-0.040-0.392v-0.944c-0.045-0.004-0.086-0.018-0.121-0.041l0.001 0.001-0.704 0.040c-0.33 0-0.711-0.117-1.144-0.352-0.101 0-0.269-0.131-0.504-0.391-0.138 0-0.295-0.224-0.472-0.672-0.059 0-0.125-0.157-0.199-0.472l0.040-0.583-0.040-0.352c0-0.416 0.157-0.821 0.472-1.216v-0.119c-0.022-0.034-0.037-0.075-0.040-0.12l-0-0.001c0.080-0.027 0.12-0.103 0.12-0.231h0.232c0.080-0.182 0.146-0.547 0.199-1.096 0.123 0 0.253-0.066 0.392-0.199 0.186 0.027 0.344 0.040 0.472 0.040 0.034-0.022 0.075-0.037 0.119-0.040l0.001-0c0 0.154 0.392 0.245 1.176 0.272 0.053-0.165 0.080-0.394 0.080-0.688 0-0.245 0.011-0.368 0.032-0.368 0-0.027-0.010-0.040-0.032-0.040 0.022-0.944 0.086-1.794 0.192-2.551-0.080-0.026-0.12-0.112-0.12-0.256 0.011-0.064 0.037-0.096 0.080-0.096 0.001-0 0.003-0 0.005-0 0.057 0 0.111 0.015 0.157 0.041l-0.002-0.001c0.037 0 0.101-0.077 0.192-0.231 0.219 0 0.336-0.014 0.352-0.040l0.080 0.040c0.336-0.15 0.704-0.243 1.104-0.281 0-0.064 0.131-0.101 0.392-0.112 0 0.048 0.037 0.072 0.112 0.072l0.352-0.032c0.16 0.048 0.24 0.085 0.24 0.112l0.192-0.040h0.040c0.090 0 0.184 0.040 0.28 0.121h0.032l0.2-0.040c0 0.048 0.117 0.088 0.352 0.12 0.128 0.139 0.298 0.256 0.511 0.352 0.342 0.533 0.512 0.848 0.512 0.944 0 0.074 0.024 0.336 0.072 0.784-0.048 0.282-0.072 0.667-0.072 1.152 0 0.746 0.050 1.119 0.152 1.119 0.629 0.069 0.944 0.122 0.944 0.16 0.203 0.053 0.387 0.287 0.552 0.704 0.090 0.069 0.194 0.24 0.312 0.511 0.016 0 0.067 0.050 0.152 0.152v0.040l-0.032 0.080c0.064 0 0.128 0.104 0.192 0.312 0.053 0 0.21 0.288 0.472 0.864 0.042 0 0.106 0.157 0.192 0.472 0.042 0 0.082 0.040 0.12 0.12l-0.080 0.040 0.040 0.272v0.472c-0.063 0.231-0.117 0.51-0.149 0.796l-0.002 0.027c-0.24 0.219-0.397 0.39-0.472 0.512-0.034 0.021-0.075 0.035-0.118 0.040l-0.001 0c-0.085-0.053-0.149-0.080-0.192-0.080-0.053 0-0.080 0.013-0.080 0.040-0.091-0.020-0.198-0.035-0.307-0.040l-0.004-0c-0.944 0-1.415 0.077-1.415 0.232-0.022 0.558-0.036 1.229-0.039 1.903l-0 0.015c0 0.165 0.013 0.272 0.039 0.32-0.021 0.032-0.035 0.070-0.039 0.111l-0 0.001 0.039 0.28h-0.039c0.048 0.293 0.101 1.037 0.16 2.231l-0.040 0.28c0.234 2.298 0.352 3.617 0.352 3.958l-0.040 0.232c0.026 0.048 0.040 0.101 0.040 0.159 0 0.001 0 0.002 0 0.003 0 0.058-0.015 0.112-0.041 0.158l0.001-0.002 0.040 0.352c0 0.475-0.026 0.867-0.080 1.176 0.020 0.034 0.032 0.076 0.032 0.12 0 0.005-0 0.011-0.001 0.016l0-0.001-0.016 0.176c0 0.048 0.007 0.088 0.024 0.12-0.053 0.896-0.093 1.365-0.12 1.408 0 0.031 0.013 0.071 0.040 0.119l-0.040 1.176c0 1.28 0.144 2.089 0.432 2.431v0.080l-0.040 0.16c0 0.139 0.144 0.32 0.432 0.544 0.080 0 0.146-0.155 0.199-0.464h0.12c0 0.027 0.011 0.064 0.032 0.112-0.020 0.046-0.032 0.099-0.032 0.156 0 0.001 0 0.003 0 0.004v-0 0.040h0.032c0.096 0 0.216-0.472 0.36-1.415l-0.040-0.080c0.025-0.041 0.040-0.092 0.040-0.145 0-0.002-0-0.004-0-0.007v0h-0.040l0.040-0.080v-0.121c0-0.106 0.011-0.25 0.032-0.432-0.017-0.032-0.028-0.070-0.032-0.11l-0-0.001h-0.040c-0.043 0.172-0.072 0.373-0.079 0.578l-0 0.005c0 0.027 0.013 0.067 0.039 0.12-0.025 0.139-0.040 0.3-0.040 0.464 0 0.014 0 0.028 0 0.042l-0-0.002c0 0.16-0.026 0.24-0.080 0.24-0.051-0.113-0.092-0.244-0.118-0.381l-0.002-0.011c0.026-0.218 0.053-0.611 0.080-1.175-0.026-0.191-0.041-0.412-0.041-0.636 0-0.024 0-0.048 0-0.071l-0 0.004c0-0.064 0.040-0.144 0.12-0.24v-0.153c0-0.026-0.014-0.039-0.040-0.039 0-0.027 0.014-0.040 0.040-0.040l-0.12-0.984c0.074-0.576 0.167-0.863 0.28-0.863 0.075 0 0.112-0.027 0.112-0.080l0.2 0.040h0.040c0.026 0 0.039-0.014 0.039-0.040l0.072 0.040 0.552-0.112c0.048 0.026 0.101 0.039 0.16 0.039v-0.080l0.272 0.039c0-0.053 0.104-0.093 0.312-0.119 0 0.053 0.117 0.092 0.352 0.119 0.133-0.080 0.24-0.119 0.32-0.119 0.005 0.053 0.037 0.080 0.096 0.080 0.127-0.107 0.199-0.16 0.216-0.16h0.080c0 0.208 0.195 0.311 0.584 0.311v0.041l-0.040 0.16c0.213 0.223 0.32 0.538 0.32 0.944v0.432l-0.040 0.231c0.048 0.342 0.072 0.59 0.072 0.744-0.022 0.624-0.046 0.978-0.072 1.063l0.040 0.072c0 0.89-0.211 1.78-0.632 2.67 0 0.059-0.104 0.217-0.312 0.473 0 0.24-0.355 0.528-1.064 0.863 0 0.091-0.13 0.155-0.391 0.192l-0.072-0.040c-0.042 0-0.123 0.054-0.24 0.16h-0.352c-0.053 0.085-0.274 0.136-0.664 0.152z"></path>
<path fill="#fff" style="fill: var(--color1, #fff)" d="M199.747 31.136c-1.781-0.096-2.671-0.227-2.671-0.391-0.022 0-0.611-0.262-1.767-0.784 0-0.070-0.365-0.25-1.095-0.544-0.384-0.155-0.789-0.416-1.215-0.784-0.313-0.224-0.574-0.497-0.777-0.811l-0.007-0.012c0-0.119-0.063-0.211-0.191-0.281-0.352-0.602-0.654-1.399-0.904-2.391l-0.080-0.704v-0.080c0.208-0.677 0.312-1.304 0.312-1.879l0.24-0.784v-0.080c-0.021 0-0.128-0.039-0.319-0.119v-0.080c0.155-0.128 0.415-0.219 0.784-0.272 0.155 0.027 0.508 0.067 1.063 0.12 0.026-0.080 0.103-0.119 0.231-0.119h0.28l0.232 0.039 0.080-0.040 0.231 0.040c0.056-0.042 0.124-0.071 0.198-0.080l0.002-0c0.288 0.155 0.706 0.272 1.255 0.352 0.475 0.442 0.735 0.664 0.784 0.664 0.128 0 0.192 0.274 0.192 0.824-0.043 0.053-0.080 0.277-0.112 0.672l0.040 0.192c-0.080 0.832-0.12 1.289-0.12 1.375 0.053 0.112 0.157 0.557 0.312 1.335l0.312 0.864c0.16 0.218 0.24 0.426 0.24 0.624 0.112 0 0.203 0.144 0.272 0.432 0.208 0.208 0.379 0.312 0.511 0.312 0.171-0.16 0.366-0.538 0.584-1.136 0-0.133 0.080-0.472 0.24-1.015l0.152-1.024c-0.022-0.034-0.036-0.074-0.039-0.118l-0-0.001 0.039-0.233c0-0.133-0.024-0.199-0.071-0.199l0.032-0.192c-0.267-1.322-0.515-2.082-0.744-2.278-0.325-0.416-0.657-0.786-1.013-1.133l-0.002-0.002c-0.064-0.442-0.168-0.664-0.312-0.664 0-0.048-0.238-0.296-0.712-0.744-0.070-0.229-0.263-0.49-0.583-0.784-0.139-0.165-0.376-0.493-0.712-0.983-0.287-0.267-0.432-0.451-0.432-0.552v-0.152c-0.112 0-0.216-0.144-0.312-0.432-0.293-0.378-0.632-0.942-1.016-1.688-0.267-0.808-0.494-1.406-0.741-1.994l0.070 0.188-0.152-0.784-0.16-0.12 0.039-0.272v-0.231c-0.234-0.64-0.365-1.059-0.391-1.255 0.039-0.094 0.093-0.174 0.16-0.24v0l-0.392-2.191c0.022-0.080 0.046-0.12 0.072-0.12l-0.040-0.2v-0.351c0-0.059 0.014-0.11 0.040-0.152-0.026-0.261-0.050-0.391-0.072-0.391l0.032-0.080v-0.512c0.15-1.257 0.413-2.316 0.792-3.174 0.262-0.342 0.483-0.696 0.664-1.064 0.608-0.757 1.745-1.135 3.414-1.135 0-0.027 0.366-0.054 1.096-0.080 1.018 0.107 1.527 0.2 1.527 0.28l0.080-0.040c1.77 0.544 3.076 1.301 3.919 2.271 0.554 0.677 0.882 1.213 0.983 1.607 0.070 0 0.186 0.355 0.352 1.063l0.24 1.488c-0.021 0.034-0.035 0.075-0.040 0.118l-0 0.001c0.048 0.101 0.072 0.192 0.072 0.272l-0.032 0.080c0.021 0.128 0.059 0.455 0.112 0.983 0 0.027-0.014 0.064-0.040 0.112 0.026 0.144 0.040 0.261 0.040 0.352 0 0.133-0.026 0.291-0.080 0.472 0.026 0.176 0.039 0.347 0.039 0.512-0.101 0-0.152 0.103-0.152 0.311-0.053 0-0.107 0.107-0.16 0.32l-0.272 0.232c-0.090 0.261-0.157 0.391-0.2 0.391l-0.112-0.080-0.16 0.12h-0.040l-0.12-0.080h-0.040l-0.032 0.16-0.28-0.040c0 0.059-0.064 0.099-0.192 0.12l-0.16-0.080-0.231 0.112c-0.282-0.234-0.453-0.352-0.512-0.352-0.197 0-0.472-0.117-0.824-0.351-0.278-0.035-0.522-0.163-0.703-0.352l-0-0c-0.448-0.176-0.722-0.411-0.824-0.704-0.112-0.213-0.23-1.077-0.352-2.59 0-0.784-0.093-1.176-0.28-1.176-0.053-0.122-0.117-0.658-0.192-1.607-0.144-0.757-0.274-1.202-0.392-1.335h-0.080c-0.522 0.522-0.784 0.901-0.784 1.135-0.262 0.496-0.458 1.306-0.592 2.432l0.040 0.080-0.040 0.391 0.040 0.312c-0.004 0.045-0.018 0.086-0.041 0.121l0.001-0.001c0 0.139 0.17 1.042 0.512 2.711 0 0.565 0.405 1.948 1.215 4.151 0.544 1.080 1.132 2.007 1.798 2.871l-0.030-0.041c0.784 0.821 1.175 1.344 1.175 1.567 0.357 0.347 0.565 0.686 0.624 1.015l0.672 1.104c0.362 0.373 0.544 0.725 0.544 1.055 0.447 1.354 0.671 2.267 0.671 2.743v0.16l-0.28 2.27c-0.219 0.576-0.362 0.904-0.432 0.984-0.267 0.698-0.645 1.168-1.136 1.408-0.512 0.368-1.255 0.628-2.231 0.783l-0.080-0.032c-0.103 0.035-0.222 0.061-0.346 0.073l-0.006 0z"></path>
</symbol>
<symbol id="no-music" viewBox="0 0 36 32">
<path fill="#fff" style="fill: var(--color1, #fff)" d="M18.914 0.376c-0.358 0.207-3.224 2.028-6.372 4.049l-5.721 3.674-2.416 0.051c-2.301 0.050-2.447 0.073-3.069 0.486-1.237 0.82-1.266 0.973-1.32 7.044-0.054 5.902 0.002 6.384 0.838 7.242 0.815 0.838 1.308 0.964 3.752 0.964h2.196l6.112 3.913c3.362 2.153 6.328 3.989 6.589 4.080 0.609 0.213 1.649 0.156 2.193-0.273 0.975-0.893 0.713-0.102 0.713-15.652v-14.283c-0.226-1.509-1.654-1.674-2.356-1.672-0.632 0-0.781 0.17-1.138 0.376z"></path>
<path fill="#fff" style="fill: var(--color1, #fff)" d="M34.856 12.53c0.056-0.056 0.090-0.133 0.090-0.217s-0.034-0.162-0.090-0.217v0l-1.087-1.087c-0.056-0.056-0.133-0.090-0.217-0.090s-0.162 0.034-0.217 0.090v0l-3.261 3.261-3.26-3.261c-0.056-0.056-0.133-0.090-0.217-0.090s-0.162 0.034-0.217 0.090v0l-1.087 1.087c-0.056 0.056-0.090 0.133-0.090 0.217s0.034 0.162 0.090 0.217v0l3.261 3.261-3.406 3.405c-0.056 0.056-0.090 0.133-0.090 0.217s0.034 0.162 0.090 0.217v0l1.087 1.087c0.056 0.056 0.133 0.090 0.217 0.090s0.162-0.034 0.217-0.090v0l3.405-3.406 3.406 3.406c0.056 0.056 0.133 0.090 0.217 0.090s0.162-0.034 0.217-0.090v0l1.087-1.087c0.056-0.056 0.090-0.133 0.090-0.217s-0.034-0.162-0.090-0.217v0l-3.406-3.405 3.261-3.261z"></path>
</symbol>
<symbol id="play-music" viewBox="0 0 35 32">
<path fill="#fff" style="fill: var(--color1, #fff)" d="M19.209 0.376c-0.363 0.207-3.275 2.028-6.472 4.049l-5.81 3.674-2.455 0.052c-2.338 0.050-2.486 0.073-3.117 0.486-1.256 0.819-1.286 0.972-1.341 7.043-0.055 5.902 0.002 6.384 0.851 7.242 0.828 0.838 1.329 0.964 3.811 0.964h2.23l6.207 3.913c3.415 2.153 6.426 3.989 6.692 4.080 0.619 0.213 1.675 0.156 2.228-0.273 0.99-0.893 0.725-0.102 0.725-15.652v-14.283c-0.23-1.509-1.68-1.674-2.393-1.672-0.642 0-0.792 0.17-1.156 0.376z"></path>
<path fill="#fff" style="fill: var(--color1, #fff)" d="M32.209 16.024c0.002-0.070 0.003-0.152 0.003-0.234 0-0.838-0.114-1.65-0.329-2.42l0.015 0.063c-0.367-1.326-0.985-2.478-1.804-3.454l0.011 0.014c-0.062-0.071-0.099-0.164-0.099-0.266 0-0.12 0.052-0.228 0.134-0.302l0-0 1.34-1.197c0.070-0.064 0.164-0.103 0.266-0.103 0.119 0 0.226 0.053 0.298 0.136l0 0 0.072 0.087c1.015 1.21 1.797 2.652 2.254 4.233l0.020 0.082 0.005 0.019 0.023 0.078c0.257 0.909 0.404 1.953 0.404 3.031 0 1.318-0.22 2.584-0.626 3.764l0.024-0.081-0.007 0.018c-0.571 1.664-1.45 3.092-2.577 4.282l0.005-0.005c-0.072 0.075-0.173 0.121-0.285 0.121-0.109 0-0.208-0.044-0.28-0.116v0l-1.276-1.263c-0.074-0.074-0.12-0.175-0.12-0.288 0-0.109 0.043-0.208 0.113-0.282l-0 0c0.862-0.929 1.536-2.046 1.95-3.282l0.019-0.064c0.259-0.763 0.419-1.644 0.444-2.558l0-0.012zM26.86 16.038l0.006-0.169c0-0.023 0.001-0.050 0.001-0.078 0-0.645-0.123-1.262-0.347-1.828l0.012 0.034c-0.234-0.596-0.556-1.107-0.954-1.548l0.004 0.004c-0.020-0.022-0.037-0.047-0.049-0.074l-0.001-0.002c-0.015-0.033-0.024-0.071-0.024-0.111 0-0.075 0.031-0.143 0.080-0.193l0-0 1.454-1.428c0.048-0.047 0.113-0.077 0.186-0.077 0.075 0 0.142 0.031 0.19 0.081l0 0 0.092 0.1c0.596 0.659 1.082 1.432 1.418 2.28l0.018 0.051c0.317 0.794 0.502 1.714 0.506 2.677v0.004c0 0.008 0 0.017 0 0.027 0 0.274-0.015 0.545-0.043 0.812l0.003-0.033v0.002c-0.103 0.971-0.377 1.857-0.791 2.658l0.020-0.042c-0.456 0.888-1.047 1.641-1.755 2.263l-0.009 0.007c-0.046 0.039-0.106 0.064-0.172 0.064-0.081 0-0.154-0.037-0.203-0.095l-0-0-1.304-1.564c-0.038-0.046-0.061-0.106-0.061-0.172 0-0.050 0.013-0.096 0.037-0.136l-0.001 0.001c0.016-0.028 0.034-0.051 0.056-0.071l0-0c0.452-0.41 0.824-0.9 1.1-1.443 0.302-0.581 0.494-1.264 0.531-1.988l0-0.012z"></path>
</symbol>
</defs>
</svg>
